<svg width="21" height="25" viewBox="0 0 21 25" fill="none" xmlns="http://www.w3.org/2000/svg">
<g clip-path="url(#clip0_69_2249)">
<path d="M9.05198 2.7446L9.25032 2.70272V2.5V1.5625C9.25032 0.826597 9.81823 0.25 10.5003 0.25C11.1824 0.25 11.7503 0.826597 11.7503 1.5625V2.5V2.70272L11.9487 2.7446C15.2505 3.44191 17.7503 6.49055 17.7503 10.1562V11.0742C17.7503 13.4326 18.5819 15.7021 20.0834 17.4667L20.0838 17.4672L20.4307 17.8725L20.4309 17.8727C20.7617 18.2583 20.8458 18.8155 20.6397 19.2901C20.4336 19.7651 19.9862 20.0625 19.5003 20.0625H1.50032C1.01322 20.0625 0.562706 19.7641 0.361595 19.2917C0.158543 18.8148 0.239951 18.2572 0.569757 17.8727L0.569941 17.8725L0.916817 17.4673L0.917285 17.4667C2.41881 15.7021 3.25032 13.4276 3.25032 11.0742V10.1562C3.25032 6.49055 5.75013 3.44191 9.05198 2.7446ZM13.24 22.125C13.1842 22.8004 12.9035 23.4346 12.4434 23.9138C11.9274 24.4513 11.2281 24.75 10.5003 24.75C9.77253 24.75 9.07329 24.4513 8.55723 23.9138C8.09719 23.4346 7.81645 22.8004 7.76063 22.125H10.5003H13.24Z" stroke="black" stroke-width="0.5"/>
</g>
<defs>
<clipPath id="clip0_69_2249">
<rect width="21" height="25" fill="white"/>
</clipPath>
</defs>
</svg>
