<svg width="77" height="54" viewBox="0 0 77 54" fill="none" xmlns="http://www.w3.org/2000/svg">
<path d="M38.5009 0C37.5264 0 36.5639 0.168717 35.6496 0.494099L1.90274 12.702C0.759802 13.1238 0.00185184 14.2084 0.00185184 15.4255C0.00185184 16.6427 0.759802 17.7273 1.90274 18.1491L8.86867 20.6678C6.89559 23.777 5.77671 27.4527 5.77671 31.3211V34.7075C5.77671 38.13 4.47737 41.661 3.09381 44.4449C2.3118 46.0115 1.42151 47.5541 0.386843 48.9761C0.00185182 49.4943 -0.106427 50.1692 0.11013 50.7838C0.326688 51.3984 0.831988 51.8564 1.4576 52.013L9.15741 53.9412C9.66271 54.0738 10.2041 53.9774 10.6493 53.7002C11.0944 53.423 11.4072 52.9651 11.5034 52.4469C12.5381 47.2889 12.0208 42.6613 11.2508 39.3472C10.8658 37.6359 10.3485 35.8885 9.62662 34.2857V31.3211C9.62662 27.6816 10.8538 24.247 12.9833 21.4994C14.5353 19.6314 16.5444 18.125 18.9025 17.1971L37.7911 9.76148C38.7776 9.37584 39.8965 9.85789 40.2815 10.8461C40.6665 11.8343 40.1853 12.955 39.1987 13.3407L20.3101 20.7763C18.8183 21.3668 17.5069 22.2706 16.4361 23.3793L35.6376 30.3208C36.5519 30.6462 37.5144 30.8149 38.4889 30.8149C39.4634 30.8149 40.4259 30.6462 41.3402 30.3208L75.0991 18.1491C76.2421 17.7394 77 16.6427 77 15.4255C77 14.2084 76.2421 13.1238 75.0991 12.702L41.3523 0.494099C40.4379 0.168717 39.4754 0 38.5009 0ZM15.4015 45.3125C15.4015 49.5666 25.7481 53.9894 38.5009 53.9894C51.2537 53.9894 61.6004 49.5666 61.6004 45.3125L59.7596 27.7901L42.6516 33.9844C41.3162 34.4665 39.9085 34.7075 38.5009 34.7075C37.0933 34.7075 35.6737 34.4665 34.3502 33.9844L17.2422 27.7901L15.4015 45.3125Z" fill="#28D8A1"/>
</svg>
