<svg width="323" height="410" viewBox="0 0 323 410" fill="none" xmlns="http://www.w3.org/2000/svg">
<path fill-rule="evenodd" clip-rule="evenodd" d="M161.704 17.8174C161.704 17.8174 30.5406 9.42844 35.2542 174.309C35.2542 174.309 38.4912 215.976 49.6718 263.653C49.6718 263.653 55.3224 301.485 59.0989 311.934C59.0989 311.934 75.4829 390.95 159.483 405.164C159.483 405.164 228.752 409.447 264.303 315.819C264.303 315.819 272.225 287.776 274.837 254.774C274.447 259.682 280.126 224.82 288.148 174.863C288.155 174.863 299.484 18.3643 161.704 17.8174Z" stroke="white" stroke-width="2.21709"/>
<path fill-rule="evenodd" clip-rule="evenodd" d="M296.14 1.1092H321.28L321.022 35.1218L296.14 1.1092Z" fill="#28D8A1" stroke="#28D8A1" stroke-width="2.21709"/>
<path fill-rule="evenodd" clip-rule="evenodd" d="M26.2573 1.1092H1.11751L1.37491 35.1218L26.2573 1.1092Z" fill="#28D8A1" stroke="#28D8A1" stroke-width="2.21709"/>
<path fill-rule="evenodd" clip-rule="evenodd" d="M296.14 405.194H321.28L321.022 371.181L296.14 405.194Z" fill="#28D8A1" stroke="#28D8A1" stroke-width="2.21709"/>
<path fill-rule="evenodd" clip-rule="evenodd" d="M26.2573 405.194H1.11751L1.37491 371.181L26.2573 405.194Z" fill="#28D8A1" stroke="#28D8A1" stroke-width="2.21709"/>
<path d="M161.938 10.3517V410" stroke="white" stroke-width="1.10854"/>
<path d="M31.0635 174.13C31.0635 174.13 42.9331 171.366 48.0698 170.433" stroke="white" stroke-width="1.10854"/>
<path d="M293.922 174.13C293.922 174.13 282.052 171.366 276.915 170.433" stroke="white" stroke-width="1.10854"/>
<path d="M48.5126 171.067L48.2329 171.319" stroke="white" stroke-width="1.10854" stroke-linecap="round" stroke-linejoin="round"/>
<path d="M48.3721 171.181L48.0981 171.284C48.0981 171.284 48.1209 171.341 48.1666 171.455" stroke="white" stroke-width="1.10854" stroke-linecap="round" stroke-linejoin="round"/>
<path d="M48.1336 171.415C48.161 171.488 48.1884 171.58 48.2158 171.689" stroke="white" stroke-width="1.10854" stroke-linecap="round" stroke-linejoin="round"/>
<path d="M48.2543 171.941C48.2817 172.032 48.3091 172.123 48.3639 172.215" stroke="white" stroke-width="1.10854" stroke-linecap="round" stroke-linejoin="round"/>
<path d="M48.5523 173.076C50.6959 180.516 61.5559 208.053 104.662 205.078C104.662 205.078 123.969 203.389 141.259 194.543C141.259 194.543 166.024 182.589 186.176 196.205C186.176 196.205 199.655 206.817 222.219 205.078C222.219 205.078 269.23 205.469 277.428 171.252" stroke="white" stroke-width="1.10854" stroke-linecap="round" stroke-linejoin="round" stroke-dasharray="1.11 5.55"/>
<path d="M277.549 170.901C277.576 170.81 277.603 170.719 277.631 170.627" stroke="white" stroke-width="1.10854" stroke-linecap="round" stroke-linejoin="round"/>
<path d="M277.619 170.582C277.647 170.49 277.674 170.399 277.702 170.308" stroke="white" stroke-width="1.10854" stroke-linecap="round" stroke-linejoin="round"/>
<path d="M277.796 170.347C277.819 170.29 277.842 170.233 277.865 170.176L277.591 170.073" stroke="white" stroke-width="1.10854" stroke-linecap="round" stroke-linejoin="round"/>
<path d="M277.736 170.212L277.456 169.96" stroke="white" stroke-width="1.10854" stroke-linecap="round" stroke-linejoin="round"/>
<path d="M277.317 169.885L277.037 169.634" stroke="white" stroke-width="1.10854" stroke-linecap="round" stroke-linejoin="round"/>
<path d="M276.2 168.966L162.12 78.7814" stroke="white" stroke-width="1.10854" stroke-linecap="round" stroke-linejoin="round" stroke-dasharray="1.11 5.55"/>
<path d="M161.896 78.6356L161.617 78.3837" stroke="white" stroke-width="1.10854" stroke-linecap="round" stroke-linejoin="round"/>
<path d="M161.641 78.4368L161.361 78.1849" stroke="white" stroke-width="1.10854" stroke-linecap="round" stroke-linejoin="round"/>
<path d="M161.422 78.3179L161.279 78.0713L161.148 78.3453" stroke="white" stroke-width="1.10854" stroke-linecap="round" stroke-linejoin="round"/>
<path d="M161.286 78.1849L161.006 78.4648" stroke="white" stroke-width="1.10854" stroke-linecap="round" stroke-linejoin="round"/>
<path d="M160.874 78.5256L160.595 78.8055" stroke="white" stroke-width="1.10854" stroke-linecap="round" stroke-linejoin="round"/>
<path d="M159.778 79.2709L48.9781 170.528" stroke="white" stroke-width="1.10854" stroke-linecap="round" stroke-linejoin="round" stroke-dasharray="1.11 5.53"/>
<path d="M48.7681 170.861L48.4884 171.141" stroke="white" stroke-width="1.10854" stroke-linecap="round" stroke-linejoin="round"/>
<path d="M252.292 200.03L252.068 200.311" stroke="white" stroke-width="1.10854" stroke-linecap="round" stroke-linejoin="round"/>
<path d="M252.193 200.18L251.969 200.46" stroke="white" stroke-width="1.10854" stroke-linecap="round" stroke-linejoin="round"/>
<path d="M251.904 200.621L251.68 200.901" stroke="white" stroke-width="1.10854" stroke-linecap="round" stroke-linejoin="round"/>
<path d="M251.094 201.603L202.522 276.311" stroke="white" stroke-width="1.10854" stroke-linecap="round" stroke-linejoin="round" stroke-dasharray="1.11 5.55"/>
<path d="M202.4 276.752L202.177 277.032" stroke="white" stroke-width="1.10854" stroke-linecap="round" stroke-linejoin="round"/>
<path d="M202.262 277.023L202.038 277.303" stroke="white" stroke-width="1.10854" stroke-linecap="round" stroke-linejoin="round"/>
<path d="M202.138 277.172L201.92 277.3L202.029 277.447" stroke="white" stroke-width="1.10854" stroke-linecap="round" stroke-linejoin="round"/>
<path d="M201.975 277.428L202.087 277.709" stroke="white" stroke-width="1.10854" stroke-linecap="round" stroke-linejoin="round"/>
<path d="M202.092 277.948L202.203 278.228" stroke="white" stroke-width="1.10854" stroke-linecap="round" stroke-linejoin="round"/>
<path d="M202.402 279.087L218.708 338.397" stroke="white" stroke-width="1.10854" stroke-linecap="round" stroke-linejoin="round" stroke-dasharray="1.12 5.59"/>
<path d="M218.849 338.917L218.961 339.197" stroke="white" stroke-width="1.10854" stroke-linecap="round" stroke-linejoin="round"/>
<path d="M218.95 339.216L219.062 339.496" stroke="white" stroke-width="1.10854" stroke-linecap="round" stroke-linejoin="round"/>
<path d="M219.014 339.394L219.126 339.674" stroke="white" stroke-width="1.10854" stroke-linecap="round" stroke-linejoin="round"/>
<path d="M71.7489 200.059L71.9731 200.339" stroke="white" stroke-width="1.10854" stroke-linecap="round" stroke-linejoin="round"/>
<path d="M71.8763 200.208L72.1005 200.489" stroke="white" stroke-width="1.10854" stroke-linecap="round" stroke-linejoin="round"/>
<path d="M72.1342 200.657L72.3584 200.937" stroke="white" stroke-width="1.10854" stroke-linecap="round" stroke-linejoin="round"/>
<path d="M72.7785 201.639L121.452 276.411" stroke="white" stroke-width="1.10854" stroke-linecap="round" stroke-linejoin="round" stroke-dasharray="1.11 5.56"/>
<path d="M121.742 276.852L121.966 277.132" stroke="white" stroke-width="1.10854" stroke-linecap="round" stroke-linejoin="round"/>
<path d="M121.912 277.122L122.136 277.402" stroke="white" stroke-width="1.10854" stroke-linecap="round" stroke-linejoin="round"/>
<path d="M122.011 277.272L122.229 277.399L122.12 277.546" stroke="white" stroke-width="1.10854" stroke-linecap="round" stroke-linejoin="round"/>
<path d="M122.109 277.528L121.997 277.808" stroke="white" stroke-width="1.10854" stroke-linecap="round" stroke-linejoin="round"/>
<path d="M121.968 278.048L121.855 278.328" stroke="white" stroke-width="1.10854" stroke-linecap="round" stroke-linejoin="round"/>
<path d="M121.572 279.187L105.227 338.547" stroke="white" stroke-width="1.10854" stroke-linecap="round" stroke-linejoin="round" stroke-dasharray="1.12 5.6"/>
<path d="M105.169 339.066L105.057 339.347" stroke="white" stroke-width="1.10854" stroke-linecap="round" stroke-linejoin="round"/>
<path d="M105.124 339.372L105.012 339.653" stroke="white" stroke-width="1.10854" stroke-linecap="round" stroke-linejoin="round"/>
<path d="M105.042 339.543L104.93 339.824" stroke="white" stroke-width="1.10854" stroke-linecap="round" stroke-linejoin="round"/>
<path d="M162.335 10.0317L162.475 10.3117" stroke="white" stroke-width="1.10854" stroke-linecap="round" stroke-linejoin="round"/>
<path d="M162.408 10.2022L162.548 10.4822" stroke="white" stroke-width="1.10854" stroke-linecap="round" stroke-linejoin="round"/>
<path d="M162.556 10.7066L162.695 10.9866" stroke="white" stroke-width="1.10854" stroke-linecap="round" stroke-linejoin="round"/>
<path d="M162.931 11.8146L227.385 203.485" stroke="white" stroke-width="1.10854" stroke-linecap="round" stroke-linejoin="round" stroke-dasharray="1.11 5.53"/>
<path d="M227.555 203.99L227.695 204.27" stroke="white" stroke-width="1.10854" stroke-linecap="round" stroke-linejoin="round"/>
<path d="M227.669 204.295L227.809 204.575" stroke="white" stroke-width="1.10854" stroke-linecap="round" stroke-linejoin="round"/>
<path d="M227.742 204.458L227.882 204.738" stroke="white" stroke-width="1.10854" stroke-linecap="round" stroke-linejoin="round"/>
<path d="M161.591 9.98211L161.451 10.2621" stroke="white" stroke-width="1.10854" stroke-linecap="round" stroke-linejoin="round"/>
<path d="M161.518 10.1526L161.378 10.4326" stroke="white" stroke-width="1.10854" stroke-linecap="round" stroke-linejoin="round"/>
<path d="M161.333 10.657L161.194 10.937" stroke="white" stroke-width="1.10854" stroke-linecap="round" stroke-linejoin="round"/>
<path d="M160.854 11.7652L96.5065 203.702" stroke="white" stroke-width="1.10854" stroke-linecap="round" stroke-linejoin="round" stroke-dasharray="1.11 5.54"/>
<path d="M96.4407 204.206L96.3011 204.486" stroke="white" stroke-width="1.10854" stroke-linecap="round" stroke-linejoin="round"/>
<path d="M96.3937 204.505L96.2541 204.784" stroke="white" stroke-width="1.10854" stroke-linecap="round" stroke-linejoin="round"/>
<path d="M96.2842 204.675L96.1447 204.955" stroke="white" stroke-width="1.10854" stroke-linecap="round" stroke-linejoin="round"/>
<path d="M160.495 404.457L160.774 404.177" stroke="white" stroke-width="1.10854" stroke-linecap="round" stroke-linejoin="round"/>
<path d="M160.608 404.322L160.888 404.043" stroke="white" stroke-width="1.10854" stroke-linecap="round" stroke-linejoin="round"/>
<path d="M160.963 403.918L161.242 403.639" stroke="white" stroke-width="1.10854" stroke-linecap="round" stroke-linejoin="round"/>
<path d="M161.728 402.83L267.378 280.72L270.143 261.329C270.143 261.329 290.154 241.208 287.31 202.05C287.31 202.05 285.46 185.092 287.537 177.106" stroke="white" stroke-width="1.10854" stroke-linecap="round" stroke-linejoin="round" stroke-dasharray="1.11 5.55"/>
<path d="M287.679 176.763C287.706 176.665 287.761 176.567 287.789 176.489" stroke="white" stroke-width="1.10854" stroke-linecap="round" stroke-linejoin="round"/>
<path d="M287.779 176.458C287.807 176.36 287.862 176.262 287.916 176.184" stroke="white" stroke-width="1.10854" stroke-linecap="round" stroke-linejoin="round"/>
<path d="M287.853 176.287C287.907 176.19 287.935 176.112 287.989 176.014" stroke="white" stroke-width="1.10854" stroke-linecap="round" stroke-linejoin="round"/>
<path d="M161.502 404.535L161.222 404.256" stroke="white" stroke-width="1.10854" stroke-linecap="round" stroke-linejoin="round"/>
<path d="M161.388 404.4L161.108 404.121" stroke="white" stroke-width="1.10854" stroke-linecap="round" stroke-linejoin="round"/>
<path d="M161.04 404.003L160.76 403.724" stroke="white" stroke-width="1.10854" stroke-linecap="round" stroke-linejoin="round"/>
<path d="M160.064 402.915L54.2052 280.769L51.4282 261.378C51.4282 261.378 31.3786 241.25 34.2266 202.093C34.2266 202.093 36.0803 185.128 33.9993 177.134" stroke="white" stroke-width="1.10854" stroke-linecap="round" stroke-linejoin="round" stroke-dasharray="1.11 5.53"/>
<path d="M33.9384 176.798C33.911 176.7 33.8562 176.603 33.8288 176.525" stroke="white" stroke-width="1.10854" stroke-linecap="round" stroke-linejoin="round"/>
<path d="M33.8889 176.486C33.8615 176.388 33.8067 176.291 33.7518 176.212" stroke="white" stroke-width="1.10854" stroke-linecap="round" stroke-linejoin="round"/>
<path d="M33.8157 176.316C33.7609 176.218 33.7335 176.14 33.6787 176.042" stroke="white" stroke-width="1.10854" stroke-linecap="round" stroke-linejoin="round"/>
<path d="M51.7941 262.894C51.7941 262.894 51.8488 262.979 51.9856 263.171" stroke="white" stroke-width="1.10854" stroke-linecap="round" stroke-linejoin="round"/>
<path d="M51.8943 263.059C51.9491 263.144 52.0038 263.229 52.0859 263.336" stroke="white" stroke-width="1.10854" stroke-linecap="round" stroke-linejoin="round"/>
<path d="M52.1282 263.525C52.1829 263.61 52.265 263.695 52.3471 263.802" stroke="white" stroke-width="1.10854" stroke-linecap="round" stroke-linejoin="round"/>
<path d="M52.745 264.529C56.715 270.624 74.077 291.048 122.689 279.144C122.689 279.144 162.772 265.949 202.998 278.584C202.998 278.584 246.541 294.497 273.112 266.53" stroke="white" stroke-width="1.10854" stroke-linecap="round" stroke-linejoin="round" stroke-dasharray="1.11 5.55"/>
<path d="M273.48 266.34C273.562 266.24 273.672 266.164 273.754 266.064" stroke="white" stroke-width="1.10854" stroke-linecap="round" stroke-linejoin="round"/>
<path d="M273.693 266.104C273.775 266.003 273.885 265.928 273.967 265.827" stroke="white" stroke-width="1.10854" stroke-linecap="round" stroke-linejoin="round"/>
<path d="M273.814 265.975C273.896 265.874 274.005 265.799 274.087 265.698" stroke="white" stroke-width="1.10854" stroke-linecap="round" stroke-linejoin="round"/>
<path d="M121.519 107.983C121.519 107.983 121.42 107.884 121.246 107.71" stroke="white" stroke-width="1.10854" stroke-linecap="round" stroke-linejoin="round"/>
<path d="M121.399 107.863C121.324 107.788 121.225 107.689 121.126 107.59" stroke="white" stroke-width="1.10854" stroke-linecap="round" stroke-linejoin="round"/>
<path d="M121.017 107.488C120.942 107.413 120.843 107.314 120.744 107.215" stroke="white" stroke-width="1.10854" stroke-linecap="round" stroke-linejoin="round"/>
<path d="M119.987 106.472C112.177 98.788 72.5132 59.959 65.7364 58.1902C65.7364 58.1902 56.5684 55.3034 61.2868 63.2914" stroke="white" stroke-width="1.10854" stroke-linecap="round" stroke-linejoin="round" stroke-dasharray="1.11 5.55"/>
<path d="M61.5626 63.7442C61.6445 63.8282 61.6991 63.9123 61.781 64.0173" stroke="white" stroke-width="1.10854" stroke-linecap="round" stroke-linejoin="round"/>
<path d="M61.7323 64.0132C61.8142 64.0972 61.8688 64.1812 61.9508 64.2862" stroke="white" stroke-width="1.10854" stroke-linecap="round" stroke-linejoin="round"/>
<path d="M61.8315 64.1617C61.9134 64.2457 61.968 64.3297 62.0499 64.4347" stroke="white" stroke-width="1.10854" stroke-linecap="round" stroke-linejoin="round"/>
<path d="M199.299 108.219C199.299 108.219 199.399 108.12 199.573 107.946" stroke="white" stroke-width="1.10854" stroke-linecap="round" stroke-linejoin="round"/>
<path d="M199.42 108.064C199.494 107.99 199.594 107.891 199.694 107.791" stroke="white" stroke-width="1.10854" stroke-linecap="round" stroke-linejoin="round"/>
<path d="M199.803 107.696C199.878 107.614 199.978 107.505 200.077 107.423" stroke="white" stroke-width="1.10854" stroke-linecap="round" stroke-linejoin="round"/>
<path d="M200.641 106.673C208.505 98.964 248.469 59.9954 255.304 58.2186C255.304 58.2186 264.545 55.3234 259.789 63.3366" stroke="white" stroke-width="1.10854" stroke-linecap="round" stroke-linejoin="round" stroke-dasharray="1.11 5.57"/>
<path d="M259.675 63.7896C259.593 63.8737 259.538 63.9578 259.456 64.0629" stroke="white" stroke-width="1.10854" stroke-linecap="round" stroke-linejoin="round"/>
<path d="M259.526 64.0657C259.444 64.1497 259.389 64.2338 259.307 64.3389" stroke="white" stroke-width="1.10854" stroke-linecap="round" stroke-linejoin="round"/>
<path d="M259.398 64.2144C259.316 64.2985 259.261 64.3826 259.179 64.4876" stroke="white" stroke-width="1.10854" stroke-linecap="round" stroke-linejoin="round"/>
<path d="M195.191 199.649C195.191 199.649 195.092 199.731 194.919 199.923" stroke="white" stroke-width="1.10854" stroke-linecap="round" stroke-linejoin="round"/>
<path d="M195.064 199.804C194.99 199.879 194.891 199.979 194.792 200.079" stroke="white" stroke-width="1.10854" stroke-linecap="round" stroke-linejoin="round"/>
<path d="M194.683 200.144C194.609 200.219 194.509 200.319 194.41 200.419" stroke="white" stroke-width="1.10854" stroke-linecap="round" stroke-linejoin="round"/>
<path d="M193.683 200.984C189.017 205.949 173.727 224.252 177.948 247.007C177.948 247.007 176.692 267.415 163.004 274.906" stroke="white" stroke-width="1.10854" stroke-linecap="round" stroke-linejoin="round" stroke-dasharray="1.1 5.51"/>
<path d="M162.719 275.155C162.635 275.21 162.53 275.292 162.446 275.347" stroke="white" stroke-width="1.10854" stroke-linecap="round" stroke-linejoin="round"/>
<path d="M162.436 275.3C162.353 275.355 162.248 275.41 162.164 275.493" stroke="white" stroke-width="1.10854" stroke-linecap="round" stroke-linejoin="round"/>
<path d="M162.274 275.401C162.177 275.456 162.099 275.511 162.002 275.566" stroke="white" stroke-width="1.10854" stroke-linecap="round" stroke-linejoin="round"/>
<path d="M128.686 199.703C128.686 199.703 128.785 199.786 128.959 199.978" stroke="white" stroke-width="1.10854" stroke-linecap="round" stroke-linejoin="round"/>
<path d="M128.813 199.824C128.887 199.899 128.986 199.999 129.085 200.099" stroke="white" stroke-width="1.10854" stroke-linecap="round" stroke-linejoin="round"/>
<path d="M129.187 200.194C129.262 200.269 129.361 200.369 129.46 200.469" stroke="white" stroke-width="1.10854" stroke-linecap="round" stroke-linejoin="round"/>
<path d="M130.006 201.04C134.7 206.004 150.012 224.252 145.776 246.923C145.776 246.923 147.033 267.276 160.763 274.743" stroke="white" stroke-width="1.10854" stroke-linecap="round" stroke-linejoin="round" stroke-dasharray="1.12 5.58"/>
<path d="M161.236 274.991C161.32 275.046 161.425 275.129 161.508 275.184" stroke="white" stroke-width="1.10854" stroke-linecap="round" stroke-linejoin="round"/>
<path d="M161.518 275.155C161.602 275.21 161.707 275.265 161.791 275.347" stroke="white" stroke-width="1.10854" stroke-linecap="round" stroke-linejoin="round"/>
<path d="M161.674 275.256C161.771 275.311 161.849 275.365 161.946 275.42" stroke="white" stroke-width="1.10854" stroke-linecap="round" stroke-linejoin="round"/>
</svg>
