<svg width="5" height="6" viewBox="0 0 5 6" fill="none" xmlns="http://www.w3.org/2000/svg">
<path d="M1.92308 0C1.71034 0 1.53846 0.167578 1.53846 0.375C1.53846 0.582422 1.71034 0.75 1.92308 0.75H2.11538V1.15313C0.917067 1.33359 0 2.34375 0 3.5625C0 4.90898 1.11899 6 2.5 6C3.88101 6 5 4.90898 5 3.5625C5 3.07266 4.85216 2.6168 4.59736 2.23594L4.88702 1.95352C5.03726 1.80703 5.03726 1.56914 4.88702 1.42266C4.73678 1.27617 4.49279 1.27617 4.34255 1.42266L4.08293 1.67578C3.74519 1.40625 3.33534 1.22109 2.88462 1.15313V0.75H3.07692C3.28966 0.75 3.46154 0.582422 3.46154 0.375C3.46154 0.167578 3.28966 0 3.07692 0H2.5H1.92308ZM2.78846 2.25V3.75C2.78846 3.90586 2.65986 4.03125 2.5 4.03125C2.34014 4.03125 2.21154 3.90586 2.21154 3.75V2.25C2.21154 2.09414 2.34014 1.96875 2.5 1.96875C2.65986 1.96875 2.78846 2.09414 2.78846 2.25Z" fill="#D9D9D9"/>
</svg>
