<svg width="11" height="15" viewBox="0 0 11 15" fill="none" xmlns="http://www.w3.org/2000/svg">
<g clip-path="url(#clip0_67_1208)">
<path d="M4.85265 13.7871C5.21073 14.1533 5.79224 14.1533 6.15031 13.7871L10.7336 9.09961C11.0917 8.7334 11.0917 8.13867 10.7336 7.77246C10.3756 7.40625 9.79406 7.40625 9.43599 7.77246L6.41672 10.8633L6.41672 1.875C6.41672 1.35644 6.00708 0.937499 5.50005 0.937499C4.99302 0.937499 4.58338 1.35644 4.58338 1.875L4.58338 10.8633L1.56411 7.77539C1.20604 7.40918 0.624526 7.40918 0.266454 7.77539C-0.0916195 8.1416 -0.0916195 8.73633 0.266454 9.10254L4.84979 13.79L4.85265 13.7871Z" fill="#5E9B68"/>
</g>
<defs>
<clipPath id="clip0_67_1208">
<rect width="11" height="15" fill="white" transform="matrix(-1 0 0 -1 11 15)"/>
</clipPath>
</defs>
</svg>
