<svg width="331" height="50" viewBox="0 0 331 50" fill="none" xmlns="http://www.w3.org/2000/svg">
<g filter="url(#filter0_d_71_3245)">
<path fill-rule="evenodd" clip-rule="evenodd" d="M5.12384 0H325.876C328.706 0 331 1.69935 331 3.79567V45.5484C331 47.6446 328.706 49.344 325.876 49.344H5.12384C2.29392 49.344 0 47.6446 0 45.5484V3.79567C0 1.69935 2.29392 0 5.12384 0Z" fill="white"/>
</g>
<path d="M312.803 18.1913C314.423 18.1913 315.976 18.8346 317.121 19.9798C318.266 21.1249 318.91 22.6781 318.91 24.2976C318.91 25.9171 318.266 27.4703 317.121 28.6154C315.976 29.7606 314.423 30.4039 312.803 30.4039C311.184 30.4039 309.631 29.7606 308.486 28.6154C307.34 27.4703 306.697 25.9171 306.697 24.2976C306.697 22.6781 307.34 21.1249 308.486 19.9798C309.631 18.8346 311.184 18.1913 312.803 18.1913ZM312.803 31.8131C314.797 31.8131 316.708 31.0213 318.118 29.6119C319.527 28.2024 320.319 26.2908 320.319 24.2976C320.319 22.3044 319.527 20.3928 318.118 18.9834C316.708 17.5739 314.797 16.7821 312.803 16.7821C310.81 16.7821 308.899 17.5739 307.489 18.9834C306.08 20.3928 305.288 22.3044 305.288 24.2976C305.288 26.2908 306.08 28.2024 307.489 29.6119C308.899 31.0213 310.81 31.8131 312.803 31.8131ZM310.426 21.9197C310.15 22.1956 310.15 22.6419 310.426 22.9149L311.805 24.2947L310.426 25.6745C310.15 25.9504 310.15 26.3967 310.426 26.6697C310.701 26.9427 311.148 26.9456 311.421 26.6697L312.801 25.2899L314.18 26.6697C314.456 26.9456 314.903 26.9456 315.176 26.6697C315.449 26.3937 315.451 25.9475 315.176 25.6745L313.796 24.2947L315.176 22.9149C315.451 22.6389 315.451 22.1927 315.176 21.9197C314.9 21.6466 314.453 21.6437 314.18 21.9197L312.801 23.2995L311.421 21.9197C311.145 21.6437 310.699 21.6437 310.426 21.9197Z" fill="#D93939"/>
<g clip-path="url(#clip0_71_3245)">
<path d="M237.434 11.7718C238.088 11.7718 238.615 12.3163 238.615 12.9931V15.0285H245.701V12.9931C245.701 12.3163 246.227 11.7718 246.882 11.7718C247.536 11.7718 248.063 12.3163 248.063 12.9931V15.0285H250.031C251.768 15.0285 253.181 16.4889 253.181 18.2852V19.0994V21.5419V34.5688C253.181 36.3651 251.768 37.8255 250.031 37.8255H234.285C232.547 37.8255 231.135 36.3651 231.135 34.5688V21.5419V19.0994V18.2852C231.135 16.4889 232.547 15.0285 234.285 15.0285H236.253V12.9931C236.253 12.3163 236.779 11.7718 237.434 11.7718ZM250.819 21.5419H233.497V34.5688C233.497 35.0166 233.852 35.383 234.285 35.383H250.031C250.464 35.383 250.819 35.0166 250.819 34.5688V21.5419ZM247.325 26.885L241.813 32.5842C241.351 33.0625 240.603 33.0625 240.145 32.5842L236.996 29.3275C236.533 28.8492 236.533 28.0757 236.996 27.6025C237.459 27.1292 238.206 27.1241 238.664 27.6025L240.977 29.9941L245.652 25.1599C246.114 24.6816 246.862 24.6816 247.32 25.1599C247.778 25.6383 247.782 26.4117 247.32 26.885H247.325Z" fill="#28D8A1"/>
</g>
<path d="M269.715 11.7718C270.391 11.7718 270.936 12.3163 270.936 12.9931V15.0285H278.264V12.9931C278.264 12.3163 278.808 11.7718 279.485 11.7718C280.162 11.7718 280.706 12.3163 280.706 12.9931V15.0285H282.742C284.538 15.0285 285.998 16.4889 285.998 18.2852V19.0994V21.5419V34.5688C285.998 36.3651 284.538 37.8255 282.742 37.8255H266.458C264.662 37.8255 263.201 36.3651 263.201 34.5688V21.5419V19.0994V18.2852C263.201 16.4889 264.662 15.0285 266.458 15.0285H268.493V12.9931C268.493 12.3163 269.038 11.7718 269.715 11.7718ZM283.556 21.5419H265.644V34.5688C265.644 35.0166 266.01 35.383 266.458 35.383H282.742C283.189 35.383 283.556 35.0166 283.556 34.5688V21.5419ZM278.722 26.0708L276.33 28.4624L278.722 30.8541C279.2 31.3324 279.2 32.1059 278.722 32.5791C278.243 33.0524 277.47 33.0575 276.996 32.5791L274.605 30.1875L272.213 32.5791C271.735 33.0575 270.961 33.0575 270.488 32.5791C270.015 32.1008 270.01 31.3273 270.488 30.8541L272.88 28.4624L270.488 26.0708C270.01 25.5925 270.01 24.819 270.488 24.3458C270.966 23.8725 271.74 23.8674 272.213 24.3458L274.605 26.7374L276.996 24.3458C277.475 23.8674 278.248 23.8674 278.722 24.3458C279.195 24.8241 279.2 25.5976 278.722 26.0708Z" fill="#D93939" fill-opacity="0.2"/>
<defs>
<filter id="filter0_d_71_3245" x="-29.4169" y="-21.7903" width="389.834" height="108.178" filterUnits="userSpaceOnUse" color-interpolation-filters="sRGB">
<feFlood flood-opacity="0" result="BackgroundImageFix"/>
<feColorMatrix in="SourceAlpha" type="matrix" values="0 0 0 0 0 0 0 0 0 0 0 0 0 0 0 0 0 0 127 0" result="hardAlpha"/>
<feOffset dy="7.61088"/>
<feGaussianBlur stdDeviation="14.6781"/>
<feColorMatrix type="matrix" values="0 0 0 0 0 0 0 0 0 0 0 0 0 0 0 0 0 0 0.1 0"/>
<feBlend mode="normal" in2="BackgroundImageFix" result="effect1_dropShadow_71_3245"/>
<feBlend mode="normal" in="SourceGraphic" in2="effect1_dropShadow_71_3245" result="shape"/>
</filter>
<clipPath id="clip0_71_3245">
<rect width="22" height="26" fill="white" transform="translate(231.135 11.7718) scale(1.00206)"/>
</clipPath>
</defs>
</svg>
