<svg width="29" height="25" viewBox="0 0 29 25" fill="none" xmlns="http://www.w3.org/2000/svg">
<g clip-path="url(#clip0_67_1486)">
<path d="M28.7416 12.4471L28.7399 12.4613V12.4756C28.7399 13.2053 28.108 13.793 27.3788 13.793H25.7677H25.5166L25.5177 14.0441L25.553 21.8652C25.553 21.8655 25.553 21.8657 25.553 21.8659C25.5529 21.9851 25.5438 22.1066 25.5294 22.2323L25.5278 22.2465V22.2607V23.0469C25.5278 23.9807 24.7458 24.75 23.7639 24.75H22.9583C22.9011 24.75 22.8568 24.7498 22.8141 24.7461L22.7945 24.7444L22.7749 24.7457C22.7145 24.7499 22.6526 24.75 22.5807 24.75H20.9444H19.7361C18.7542 24.75 17.9722 23.9807 17.9722 23.0469V21.875V18.75C17.9722 17.7405 17.1331 16.9375 16.1111 16.9375H12.8889C11.8669 16.9375 11.0278 17.7405 11.0278 18.75V21.875V23.0469C11.0278 23.9807 10.2458 24.75 9.26389 24.75H8.05556H6.44948C6.38338 24.75 6.31593 24.7457 6.23905 24.7408L6.2209 24.7396L6.20278 24.741C6.14065 24.7461 6.09031 24.75 6.04167 24.75H5.23611C4.25423 24.75 3.47222 23.9807 3.47222 23.0469V17.5781C3.47222 17.5311 3.47252 17.497 3.47563 17.4699L3.47726 17.4557V17.4414V14.043V13.793H3.22726H1.61111C0.836176 13.793 0.25 13.2146 0.25 12.4756C0.25 12.1049 0.372967 11.7812 0.671604 11.4889L13.5739 0.581544L13.5804 0.576032L13.5865 0.570088C13.8694 0.295797 14.1915 0.25 14.5201 0.25C14.8323 0.25 15.1726 0.337311 15.4179 0.53428L28.2739 11.494L28.2744 11.4943C28.6362 11.8014 28.7795 12.1163 28.7416 12.4471Z" stroke="#28D8A1" stroke-width="0.5"/>
</g>
<defs>
<clipPath id="clip0_67_1486">
<rect width="29" height="25" fill="white"/>
</clipPath>
</defs>
</svg>
