<svg width="20" height="27" viewBox="0 0 20 27" fill="none" xmlns="http://www.w3.org/2000/svg">
<g clip-path="url(#clip0_69_2646)">
<path d="M5.28646 3.625H5.46435L5.52265 3.45693C6.17153 1.58627 7.93387 0.25 10 0.25C12.0661 0.25 13.8285 1.58627 14.4773 3.45693L14.5356 3.625H14.7135H16.6667C18.3642 3.625 19.75 5.02361 19.75 6.75V23.625C19.75 25.3514 18.3642 26.75 16.6667 26.75H3.33333C1.63578 26.75 0.25 25.3514 0.25 23.625V6.75C0.25 5.02361 1.63578 3.625 3.33333 3.625H5.28646ZM11.3564 3.69358C10.9972 3.32989 10.5093 3.125 10 3.125C9.49066 3.125 9.00282 3.32989 8.64362 3.69358C8.28452 4.05717 8.08333 4.54964 8.08333 5.0625C8.08333 5.57536 8.28452 6.06783 8.64362 6.43142C9.00282 6.79511 9.49066 7 10 7C10.5093 7 10.9972 6.79511 11.3564 6.43142C11.7155 6.06783 11.9167 5.57536 11.9167 5.0625C11.9167 4.54964 11.7155 4.05717 11.3564 3.69358ZM3.93824 13.2731C3.65729 13.5576 3.5 13.9428 3.5 14.3438C3.5 14.7447 3.65729 15.1299 3.93824 15.4144C4.2193 15.6989 4.60117 15.8594 5 15.8594C5.39883 15.8594 5.7807 15.6989 6.06175 15.4144C6.34271 15.1299 6.5 14.7447 6.5 14.3438C6.5 13.9428 6.34271 13.5576 6.06176 13.2731C5.7807 12.9886 5.39883 12.8281 5 12.8281C4.60117 12.8281 4.2193 12.9886 3.93824 13.2731ZM15.8333 13.25H9.16667C8.56734 13.25 8.08333 13.7446 8.08333 14.3438C8.08333 14.9429 8.56734 15.4375 9.16667 15.4375H15.8333C16.4327 15.4375 16.9167 14.9429 16.9167 14.3438C16.9167 13.7446 16.4327 13.25 15.8333 13.25ZM3.93825 18.3356C3.65729 18.6201 3.5 19.0053 3.5 19.4062C3.5 19.8072 3.65729 20.1924 3.93824 20.4769C4.2193 20.7614 4.60117 20.9219 5 20.9219C5.39883 20.9219 5.7807 20.7614 6.06175 20.4769C6.34271 20.1924 6.5 19.8072 6.5 19.4062C6.5 19.0053 6.34271 18.6201 6.06175 18.3356C5.7807 18.0511 5.39883 17.8906 5 17.8906C4.60117 17.8906 4.2193 18.0511 3.93825 18.3356ZM9.16667 18.3125C8.56734 18.3125 8.08333 18.8071 8.08333 19.4062C8.08333 20.0054 8.56734 20.5 9.16667 20.5H15.8333C16.4327 20.5 16.9167 20.0054 16.9167 19.4062C16.9167 18.8071 16.4327 18.3125 15.8333 18.3125H9.16667Z" stroke="black" stroke-width="0.5"/>
</g>
<defs>
<clipPath id="clip0_69_2646">
<rect width="20" height="27" fill="white"/>
</clipPath>
</defs>
</svg>
