<svg width="331" height="50" viewBox="0 0 331 50" fill="none" xmlns="http://www.w3.org/2000/svg">
<g filter="url(#filter0_d_71_3256)">
<path fill-rule="evenodd" clip-rule="evenodd" d="M5.12384 0H325.876C328.706 0 331 1.69935 331 3.79567V45.5484C331 47.6446 328.706 49.344 325.876 49.344H5.12384C2.29392 49.344 0 47.6446 0 45.5484V3.79567C0 1.69935 2.29392 0 5.12384 0Z" fill="white"/>
</g>
<path d="M304.827 20.0388C304.827 18.9093 305.277 17.8261 306.079 17.0274C306.881 16.2288 307.968 15.7801 309.101 15.7801C310.235 15.7801 311.322 16.2288 312.124 17.0274C312.925 17.8261 313.376 18.9093 313.376 20.0388C313.376 21.1683 312.925 22.2516 312.124 23.0502C311.322 23.8489 310.235 24.2976 309.101 24.2976C307.968 24.2976 306.881 23.8489 306.079 23.0502C305.277 22.2516 304.827 21.1683 304.827 20.0388ZM301.621 31.827C301.621 28.5497 304.286 25.8947 307.575 25.8947H310.627C313.917 25.8947 316.581 28.5497 316.581 31.827C316.581 32.3726 316.137 32.8152 315.59 32.8152H302.613C302.065 32.8152 301.621 32.3726 301.621 31.827ZM317.383 22.4344H322.191C322.635 22.4344 322.993 22.7904 322.993 23.2329C322.993 23.6754 322.635 24.0314 322.191 24.0314H317.383C316.939 24.0314 316.581 23.6754 316.581 23.2329C316.581 22.7904 316.939 22.4344 317.383 22.4344Z" fill="#D93939"/>
<g clip-path="url(#clip0_71_3256)">
<path d="M237.434 11.7718C238.088 11.7718 238.615 12.3163 238.615 12.9931V15.0285H245.701V12.9931C245.701 12.3163 246.227 11.7718 246.882 11.7718C247.536 11.7718 248.063 12.3163 248.063 12.9931V15.0285H250.031C251.768 15.0285 253.181 16.4889 253.181 18.2852V19.0994V21.5419V34.5688C253.181 36.3651 251.768 37.8255 250.031 37.8255H234.285C232.547 37.8255 231.135 36.3651 231.135 34.5688V21.5419V19.0994V18.2852C231.135 16.4889 232.547 15.0285 234.285 15.0285H236.253V12.9931C236.253 12.3163 236.779 11.7718 237.434 11.7718ZM250.819 21.5419H233.497V34.5688C233.497 35.0166 233.852 35.383 234.285 35.383H250.031C250.464 35.383 250.819 35.0166 250.819 34.5688V21.5419ZM247.325 26.885L241.813 32.5842C241.351 33.0625 240.603 33.0625 240.145 32.5842L236.996 29.3275C236.533 28.8492 236.533 28.0757 236.996 27.6025C237.459 27.1292 238.206 27.1241 238.664 27.6025L240.977 29.9941L245.652 25.1599C246.114 24.6816 246.862 24.6816 247.32 25.1599C247.778 25.6383 247.782 26.4117 247.32 26.885H247.325Z" fill="#28D8A1"/>
</g>
<path d="M269.715 11.7718C270.391 11.7718 270.936 12.3163 270.936 12.9931V15.0285H278.264V12.9931C278.264 12.3163 278.808 11.7718 279.485 11.7718C280.162 11.7718 280.706 12.3163 280.706 12.9931V15.0285H282.742C284.538 15.0285 285.998 16.4889 285.998 18.2852V19.0994V21.5419V34.5688C285.998 36.3651 284.538 37.8255 282.742 37.8255H266.458C264.662 37.8255 263.201 36.3651 263.201 34.5688V21.5419V19.0994V18.2852C263.201 16.4889 264.662 15.0285 266.458 15.0285H268.493V12.9931C268.493 12.3163 269.038 11.7718 269.715 11.7718ZM283.556 21.5419H265.644V34.5688C265.644 35.0166 266.01 35.383 266.458 35.383H282.742C283.189 35.383 283.556 35.0166 283.556 34.5688V21.5419ZM278.722 26.0708L276.33 28.4624L278.722 30.8541C279.2 31.3324 279.2 32.1059 278.722 32.5791C278.243 33.0524 277.47 33.0575 276.996 32.5791L274.605 30.1875L272.213 32.5791C271.735 33.0575 270.961 33.0575 270.488 32.5791C270.015 32.1008 270.01 31.3273 270.488 30.8541L272.88 28.4624L270.488 26.0708C270.01 25.5925 270.01 24.819 270.488 24.3458C270.966 23.8725 271.74 23.8674 272.213 24.3458L274.605 26.7374L276.996 24.3458C277.475 23.8674 278.248 23.8674 278.722 24.3458C279.195 24.8241 279.2 25.5976 278.722 26.0708Z" fill="#D93939" fill-opacity="0.2"/>
<defs>
<filter id="filter0_d_71_3256" x="-29.4169" y="-21.7903" width="389.834" height="108.178" filterUnits="userSpaceOnUse" color-interpolation-filters="sRGB">
<feFlood flood-opacity="0" result="BackgroundImageFix"/>
<feColorMatrix in="SourceAlpha" type="matrix" values="0 0 0 0 0 0 0 0 0 0 0 0 0 0 0 0 0 0 127 0" result="hardAlpha"/>
<feOffset dy="7.61088"/>
<feGaussianBlur stdDeviation="14.6781"/>
<feColorMatrix type="matrix" values="0 0 0 0 0 0 0 0 0 0 0 0 0 0 0 0 0 0 0.1 0"/>
<feBlend mode="normal" in2="BackgroundImageFix" result="effect1_dropShadow_71_3256"/>
<feBlend mode="normal" in="SourceGraphic" in2="effect1_dropShadow_71_3256" result="shape"/>
</filter>
<clipPath id="clip0_71_3256">
<rect width="22" height="26" fill="white" transform="translate(231.135 11.7718) scale(1.00206)"/>
</clipPath>
</defs>
</svg>
