<svg width="19" height="16" viewBox="0 0 19 16" fill="none" xmlns="http://www.w3.org/2000/svg">
<path fill-rule="evenodd" clip-rule="evenodd" d="M9.82893 9.6782C9.82893 9.94043 9.61305 10.1532 9.34702 10.1532C9.08101 10.1532 8.86513 9.94043 8.86513 9.6782V5.16593C8.86513 4.9037 9.08101 4.69093 9.34702 4.69093C9.61305 4.69093 9.82893 4.9037 9.82893 5.16593V9.6782ZM10.3398 12.3916C10.3398 11.9152 9.94794 11.529 9.46462 11.529C8.98128 11.529 8.58948 11.9152 8.58948 12.3916C8.58948 12.868 8.98128 13.2541 9.46462 13.2541C9.94794 13.2541 10.3398 12.868 10.3398 12.3916ZM11.2212 1.41238L11.1993 1.3789C10.7531 0.701104 10.2919 0 9.46468 0C8.60254 0 8.15149 0.711076 7.71534 1.3991C7.71318 1.40239 7.6997 1.42376 7.6975 1.42732L0.0669891 14.1713C0.0231428 14.2445 0 14.2827 0 14.3675C0 15.2928 0.755402 16 1.68379 16H17.2458C18.1744 16 18.9296 15.2925 18.9296 14.3675C18.9296 14.2827 18.9064 14.2217 18.8629 14.1488L11.2212 1.41238ZM17.2458 15.0501H1.68379C1.33175 15.0501 1.02911 14.8242 0.972968 14.4815L8.53266 1.87998C8.90711 1.28934 9.15242 0.938806 9.46468 0.938806C9.76853 0.938806 10.0567 1.38292 10.3907 1.89019L17.9564 14.4789C17.9005 14.8213 17.5978 15.0501 17.2458 15.0501Z" fill="white"/>
</svg>
