<svg width="72" height="72" viewBox="0 0 72 72" fill="none" xmlns="http://www.w3.org/2000/svg">
<g filter="url(#filter0_d_66_1098)">
<path fill-rule="evenodd" clip-rule="evenodd" d="M36 18.3274C29.8294 18.3274 24.8727 23.284 24.8727 29.4546C24.8727 35.6252 29.8294 40.5819 36 40.5819C42.1706 40.5819 47.1273 35.6252 47.1273 29.4546C47.1273 23.284 42.1706 18.3274 36 18.3274ZM42.4234 25.9647L34.3309 34.3608C34.2298 34.4619 34.1286 34.5125 33.9768 34.5125C33.8251 34.5125 33.6734 34.4619 33.6228 34.3608L29.6777 30.1121L29.5765 30.011C29.4754 29.9098 29.4248 29.7581 29.4248 29.6569C29.4248 29.5558 29.4754 29.404 29.5765 29.3029L30.2846 28.5948C30.4869 28.3925 30.7904 28.3925 30.9927 28.5948L31.0433 28.6454L33.8251 31.6295C33.9263 31.7306 34.078 31.7306 34.1792 31.6295L40.9567 24.5991H41.0073C41.2096 24.3968 41.5131 24.3968 41.7154 24.5991L42.4234 25.3072C42.6258 25.4589 42.6258 25.7624 42.4234 25.9647Z" fill="#28D8A1"/>
</g>
<defs>
<filter id="filter0_d_66_1098" x="0" y="8.43804e-05" width="72" height="72.0001" filterUnits="userSpaceOnUse" color-interpolation-filters="sRGB">
<feFlood flood-opacity="0" result="BackgroundImageFix"/>
<feColorMatrix in="SourceAlpha" type="matrix" values="0 0 0 0 0 0 0 0 0 0 0 0 0 0 0 0 0 0 127 0" result="hardAlpha"/>
<feOffset dy="6.47301"/>
<feGaussianBlur stdDeviation="12.2987"/>
<feColorMatrix type="matrix" values="0 0 0 0 0.156863 0 0 0 0 0.847059 0 0 0 0 0.631373 0 0 0 0.46 0"/>
<feBlend mode="normal" in2="BackgroundImageFix" result="effect1_dropShadow_66_1098"/>
<feBlend mode="normal" in="SourceGraphic" in2="effect1_dropShadow_66_1098" result="shape"/>
</filter>
</defs>
</svg>
