<svg width="153" height="194" viewBox="0 0 153 194" fill="none" xmlns="http://www.w3.org/2000/svg">
<path fill-rule="evenodd" clip-rule="evenodd" d="M76.6868 8.73214C76.6868 8.73214 14.7068 4.7714 16.9342 82.6179C16.9342 82.6179 18.4638 102.291 23.747 124.801C23.747 124.801 26.4172 142.663 28.2017 147.596C28.2017 147.596 35.9438 184.903 75.6369 191.614C75.6369 191.614 108.369 193.636 125.169 149.431C125.169 149.431 128.912 136.19 130.147 120.609C129.962 122.926 132.646 106.466 136.436 82.8795C136.439 82.8795 141.793 8.99037 76.6868 8.73214Z" stroke="#28D8A1" stroke-width="1.57635"/>
<path fill-rule="evenodd" clip-rule="evenodd" d="M140.234 0.79067H152.096L151.974 16.8695L140.234 0.79067Z" stroke="#28D8A1" stroke-width="1.57635"/>
<path fill-rule="evenodd" clip-rule="evenodd" d="M12.6582 0.79067H0.796763L0.918211 16.8695L12.6582 0.79067Z" stroke="#28D8A1" stroke-width="1.57635"/>
<path fill-rule="evenodd" clip-rule="evenodd" d="M140.234 191.628H152.096L151.974 175.549L140.234 191.628Z" stroke="#28D8A1" stroke-width="1.57635"/>
<path fill-rule="evenodd" clip-rule="evenodd" d="M12.6582 191.628H0.796794L0.918242 175.549L12.6582 191.628Z" stroke="#28D8A1" stroke-width="1.57635"/>
<path d="M76.7099 5.27162V194" stroke="#28D8A1" stroke-width="0.788177"/>
<path d="M15.0304 82.7663C15.0304 82.7663 20.5496 81.3867 22.9381 80.9212" stroke="black" stroke-width="0.788177"/>
<path d="M138.916 82.7663C138.916 82.7663 133.397 81.3867 131.009 80.9212" stroke="black" stroke-width="0.788177"/>
<path d="M23.1471 81.1608L23.0153 81.2794" stroke="black" stroke-width="0.788177" stroke-linecap="round" stroke-linejoin="round"/>
<path d="M23.0811 81.2144L22.9515 81.263C22.9515 81.263 22.9623 81.29 22.9839 81.3439" stroke="black" stroke-width="0.788177" stroke-linecap="round" stroke-linejoin="round"/>
<path d="M22.9683 81.3251C22.9812 81.3597 22.9942 81.4028 23.0072 81.4546" stroke="black" stroke-width="0.788177" stroke-linecap="round" stroke-linejoin="round"/>
<path d="M23.0254 81.5735C23.0383 81.6167 23.0513 81.6598 23.0772 81.703" stroke="black" stroke-width="0.788177" stroke-linecap="round" stroke-linejoin="round"/>
<path d="M23.1664 82.1105C24.1805 85.6276 29.3181 98.6459 49.7108 97.2397C49.7108 97.2397 58.8444 96.4409 67.0243 92.2593C67.0243 92.2593 78.7401 86.6076 88.2733 93.0446C88.2733 93.0446 94.65 98.0619 105.325 97.2397C105.325 97.2397 127.564 97.4243 131.443 81.248" stroke="black" stroke-width="0.788177" stroke-linecap="round" stroke-linejoin="round" stroke-dasharray="0.79 3.95"/>
<path d="M131.5 81.0821C131.513 81.0389 131.526 80.9957 131.539 80.9526" stroke="black" stroke-width="0.788177" stroke-linecap="round" stroke-linejoin="round"/>
<path d="M131.534 80.931C131.546 80.8878 131.559 80.8446 131.572 80.8014" stroke="black" stroke-width="0.788177" stroke-linecap="round" stroke-linejoin="round"/>
<path d="M131.617 80.8202C131.628 80.7933 131.639 80.7663 131.65 80.7393L131.52 80.6907" stroke="black" stroke-width="0.788177" stroke-linecap="round" stroke-linejoin="round"/>
<path d="M131.588 80.7557L131.456 80.6371" stroke="black" stroke-width="0.788177" stroke-linecap="round" stroke-linejoin="round"/>
<path d="M131.39 80.6014L131.258 80.4828" stroke="black" stroke-width="0.788177" stroke-linecap="round" stroke-linejoin="round"/>
<path d="M130.862 80.1673L76.8933 37.5316" stroke="black" stroke-width="0.788177" stroke-linecap="round" stroke-linejoin="round" stroke-dasharray="0.79 3.95"/>
<path d="M76.7866 37.4623L76.6549 37.3437" stroke="black" stroke-width="0.788177" stroke-linecap="round" stroke-linejoin="round"/>
<path d="M76.6658 37.3683L76.534 37.2497" stroke="black" stroke-width="0.788177" stroke-linecap="round" stroke-linejoin="round"/>
<path d="M76.5628 37.3126L76.4952 37.196L76.4332 37.3256" stroke="black" stroke-width="0.788177" stroke-linecap="round" stroke-linejoin="round"/>
<path d="M76.4979 37.2497L76.3661 37.3815" stroke="black" stroke-width="0.788177" stroke-linecap="round" stroke-linejoin="round"/>
<path d="M76.3031 37.4108L76.1713 37.5426" stroke="black" stroke-width="0.788177" stroke-linecap="round" stroke-linejoin="round"/>
<path d="M75.7852 37.7633L23.3679 80.9058" stroke="black" stroke-width="0.788177" stroke-linecap="round" stroke-linejoin="round" stroke-dasharray="0.79 3.93"/>
<path d="M23.268 81.0635L23.1362 81.1953" stroke="black" stroke-width="0.788177" stroke-linecap="round" stroke-linejoin="round"/>
<path d="M119.557 94.9015L119.451 95.0333" stroke="black" stroke-width="0.788177" stroke-linecap="round" stroke-linejoin="round"/>
<path d="M119.51 94.972L119.404 95.1038" stroke="black" stroke-width="0.788177" stroke-linecap="round" stroke-linejoin="round"/>
<path d="M119.373 95.1805L119.267 95.3122" stroke="black" stroke-width="0.788177" stroke-linecap="round" stroke-linejoin="round"/>
<path d="M118.99 95.6444L95.9989 130.92" stroke="black" stroke-width="0.788177" stroke-linecap="round" stroke-linejoin="round" stroke-dasharray="0.79 3.95"/>
<path d="M95.9406 131.128L95.8352 131.26" stroke="black" stroke-width="0.788177" stroke-linecap="round" stroke-linejoin="round"/>
<path d="M95.8753 131.256L95.7698 131.387" stroke="black" stroke-width="0.788177" stroke-linecap="round" stroke-linejoin="round"/>
<path d="M95.8171 131.326L95.7139 131.386L95.7655 131.456" stroke="black" stroke-width="0.788177" stroke-linecap="round" stroke-linejoin="round"/>
<path d="M95.7397 131.447L95.7924 131.579" stroke="black" stroke-width="0.788177" stroke-linecap="round" stroke-linejoin="round"/>
<path d="M95.7951 131.693L95.8478 131.824" stroke="black" stroke-width="0.788177" stroke-linecap="round" stroke-linejoin="round"/>
<path d="M95.9421 132.23L103.66 160.236" stroke="black" stroke-width="0.788177" stroke-linecap="round" stroke-linejoin="round" stroke-dasharray="0.8 3.98"/>
<path d="M103.727 160.481L103.78 160.613" stroke="black" stroke-width="0.788177" stroke-linecap="round" stroke-linejoin="round"/>
<path d="M103.775 160.622L103.828 160.754" stroke="black" stroke-width="0.788177" stroke-linecap="round" stroke-linejoin="round"/>
<path d="M103.805 160.706L103.858 160.838" stroke="black" stroke-width="0.788177" stroke-linecap="round" stroke-linejoin="round"/>
<path d="M34.281 94.9149L34.3864 95.0467" stroke="black" stroke-width="0.788177" stroke-linecap="round" stroke-linejoin="round"/>
<path d="M34.3411 94.9855L34.4465 95.1173" stroke="black" stroke-width="0.788177" stroke-linecap="round" stroke-linejoin="round"/>
<path d="M34.4628 95.1974L34.5683 95.3291" stroke="black" stroke-width="0.788177" stroke-linecap="round" stroke-linejoin="round"/>
<path d="M34.7669 95.6613L57.7469 130.967" stroke="black" stroke-width="0.788177" stroke-linecap="round" stroke-linejoin="round" stroke-dasharray="0.79 3.95"/>
<path d="M57.8839 131.175L57.9894 131.307" stroke="black" stroke-width="0.788177" stroke-linecap="round" stroke-linejoin="round"/>
<path d="M57.9641 131.303L58.0696 131.434" stroke="black" stroke-width="0.788177" stroke-linecap="round" stroke-linejoin="round"/>
<path d="M58.0109 131.373L58.1141 131.433L58.0625 131.503" stroke="black" stroke-width="0.788177" stroke-linecap="round" stroke-linejoin="round"/>
<path d="M58.057 131.494L58.0043 131.626" stroke="black" stroke-width="0.788177" stroke-linecap="round" stroke-linejoin="round"/>
<path d="M57.9901 131.74L57.9374 131.871" stroke="black" stroke-width="0.788177" stroke-linecap="round" stroke-linejoin="round"/>
<path d="M57.8037 132.278L50.0869 160.306" stroke="black" stroke-width="0.788177" stroke-linecap="round" stroke-linejoin="round" stroke-dasharray="0.8 3.98"/>
<path d="M50.0594 160.551L50.0067 160.683" stroke="black" stroke-width="0.788177" stroke-linecap="round" stroke-linejoin="round"/>
<path d="M50.038 160.696L49.9853 160.828" stroke="black" stroke-width="0.788177" stroke-linecap="round" stroke-linejoin="round"/>
<path d="M49.9993 160.776L49.9466 160.908" stroke="black" stroke-width="0.788177" stroke-linecap="round" stroke-linejoin="round"/>
<path d="M76.9864 5.03158L77.0523 5.16337" stroke="black" stroke-width="0.788177" stroke-linecap="round" stroke-linejoin="round"/>
<path d="M77.021 5.11217L77.0869 5.24396" stroke="black" stroke-width="0.788177" stroke-linecap="round" stroke-linejoin="round"/>
<path d="M77.091 5.35049L77.1569 5.48229" stroke="black" stroke-width="0.788177" stroke-linecap="round" stroke-linejoin="round"/>
<path d="M77.269 5.87418L107.819 96.4603" stroke="black" stroke-width="0.788177" stroke-linecap="round" stroke-linejoin="round" stroke-dasharray="0.79 3.93"/>
<path d="M107.9 96.6986L107.966 96.8304" stroke="black" stroke-width="0.788177" stroke-linecap="round" stroke-linejoin="round"/>
<path d="M107.954 96.8431L108.02 96.9749" stroke="black" stroke-width="0.788177" stroke-linecap="round" stroke-linejoin="round"/>
<path d="M107.988 96.9203L108.054 97.0521" stroke="black" stroke-width="0.788177" stroke-linecap="round" stroke-linejoin="round"/>
<path d="M76.6333 5.00807L76.5674 5.13986" stroke="black" stroke-width="0.788177" stroke-linecap="round" stroke-linejoin="round"/>
<path d="M76.5988 5.08865L76.5329 5.22045" stroke="black" stroke-width="0.788177" stroke-linecap="round" stroke-linejoin="round"/>
<path d="M76.5114 5.32698L76.4455 5.45877" stroke="black" stroke-width="0.788177" stroke-linecap="round" stroke-linejoin="round"/>
<path d="M76.2843 5.85066L45.7846 96.561" stroke="black" stroke-width="0.788177" stroke-linecap="round" stroke-linejoin="round" stroke-dasharray="0.79 3.94"/>
<path d="M45.7531 96.7993L45.6872 96.9311" stroke="black" stroke-width="0.788177" stroke-linecap="round" stroke-linejoin="round"/>
<path d="M45.7308 96.9404L45.6649 97.0722" stroke="black" stroke-width="0.788177" stroke-linecap="round" stroke-linejoin="round"/>
<path d="M45.6789 97.0209L45.613 97.1527" stroke="black" stroke-width="0.788177" stroke-linecap="round" stroke-linejoin="round"/>
<path d="M76.1995 191.454L76.3313 191.322" stroke="black" stroke-width="0.788177" stroke-linecap="round" stroke-linejoin="round"/>
<path d="M76.2532 191.39L76.385 191.258" stroke="black" stroke-width="0.788177" stroke-linecap="round" stroke-linejoin="round"/>
<path d="M76.421 191.199L76.5528 191.067" stroke="black" stroke-width="0.788177" stroke-linecap="round" stroke-linejoin="round"/>
<path d="M76.7835 190.684L126.793 132.878L128.102 123.698C128.102 123.698 137.575 114.173 136.229 95.6361C136.229 95.6361 135.353 87.6082 136.336 83.8277" stroke="black" stroke-width="0.788177" stroke-linecap="round" stroke-linejoin="round" stroke-dasharray="0.79 3.95"/>
<path d="M136.403 83.665C136.416 83.6188 136.442 83.5725 136.455 83.5355" stroke="black" stroke-width="0.788177" stroke-linecap="round" stroke-linejoin="round"/>
<path d="M136.451 83.5205C136.464 83.4743 136.49 83.428 136.515 83.3909" stroke="black" stroke-width="0.788177" stroke-linecap="round" stroke-linejoin="round"/>
<path d="M136.485 83.4399C136.511 83.3937 136.524 83.3566 136.55 83.3104" stroke="black" stroke-width="0.788177" stroke-linecap="round" stroke-linejoin="round"/>
<path d="M76.5031 191.49L76.3713 191.359" stroke="black" stroke-width="0.788177" stroke-linecap="round" stroke-linejoin="round"/>
<path d="M76.4494 191.427L76.3176 191.295" stroke="black" stroke-width="0.788177" stroke-linecap="round" stroke-linejoin="round"/>
<path d="M76.2849 191.239L76.1531 191.107" stroke="black" stroke-width="0.788177" stroke-linecap="round" stroke-linejoin="round"/>
<path d="M75.8242 190.724L25.798 132.901L24.4857 123.721C24.4857 123.721 15.0108 114.193 16.3567 95.6558C16.3567 95.6558 17.2327 87.6246 16.2493 83.8407" stroke="black" stroke-width="0.788177" stroke-linecap="round" stroke-linejoin="round" stroke-dasharray="0.79 3.93"/>
<path d="M16.2205 83.6815C16.2076 83.6352 16.1817 83.5889 16.1687 83.5519" stroke="black" stroke-width="0.788177" stroke-linecap="round" stroke-linejoin="round"/>
<path d="M16.1971 83.5338C16.1841 83.4875 16.1582 83.4412 16.1323 83.4042" stroke="black" stroke-width="0.788177" stroke-linecap="round" stroke-linejoin="round"/>
<path d="M16.1625 83.4532C16.1366 83.4069 16.1237 83.3699 16.0977 83.3236" stroke="black" stroke-width="0.788177" stroke-linecap="round" stroke-linejoin="round"/>
<path d="M24.5325 124.43C24.5325 124.43 24.5584 124.469 24.6232 124.558" stroke="black" stroke-width="0.788177" stroke-linecap="round" stroke-linejoin="round"/>
<path d="M24.5801 124.506C24.606 124.546 24.6319 124.585 24.6707 124.634" stroke="black" stroke-width="0.788177" stroke-linecap="round" stroke-linejoin="round"/>
<path d="M24.6908 124.722C24.7167 124.762 24.7555 124.801 24.7944 124.851" stroke="black" stroke-width="0.788177" stroke-linecap="round" stroke-linejoin="round"/>
<path d="M24.9827 125.188C26.8622 128.014 35.0813 137.483 58.0942 131.964C58.0942 131.964 77.0697 125.846 96.1124 131.704C96.1124 131.704 116.726 139.082 129.304 126.115" stroke="black" stroke-width="0.788177" stroke-linecap="round" stroke-linejoin="round" stroke-dasharray="0.79 3.95"/>
<path d="M129.479 126.028C129.518 125.981 129.57 125.946 129.608 125.899" stroke="black" stroke-width="0.788177" stroke-linecap="round" stroke-linejoin="round"/>
<path d="M129.58 125.918C129.618 125.871 129.67 125.836 129.709 125.789" stroke="black" stroke-width="0.788177" stroke-linecap="round" stroke-linejoin="round"/>
<path d="M129.637 125.858C129.675 125.811 129.727 125.776 129.766 125.73" stroke="black" stroke-width="0.788177" stroke-linecap="round" stroke-linejoin="round"/>
<path d="M57.7002 51.1769C57.7002 51.1769 57.6531 51.13 57.5707 51.0479" stroke="black" stroke-width="0.788177" stroke-linecap="round" stroke-linejoin="round"/>
<path d="M57.6432 51.1201C57.6079 51.0849 57.5608 51.038 57.5137 50.9911" stroke="black" stroke-width="0.788177" stroke-linecap="round" stroke-linejoin="round"/>
<path d="M57.462 50.943C57.4267 50.9078 57.3796 50.8609 57.3325 50.814" stroke="black" stroke-width="0.788177" stroke-linecap="round" stroke-linejoin="round"/>
<path d="M56.9735 50.4632C53.2692 46.8337 34.456 28.4925 31.2416 27.657C31.2416 27.657 26.8931 26.2934 29.1311 30.0666" stroke="black" stroke-width="0.788177" stroke-linecap="round" stroke-linejoin="round" stroke-dasharray="0.79 3.95"/>
<path d="M29.2619 30.2806C29.3007 30.3203 29.3266 30.36 29.3655 30.4096" stroke="black" stroke-width="0.788177" stroke-linecap="round" stroke-linejoin="round"/>
<path d="M29.3424 30.4075C29.3813 30.4472 29.4072 30.4869 29.446 30.5365" stroke="black" stroke-width="0.788177" stroke-linecap="round" stroke-linejoin="round"/>
<path d="M29.3894 30.4775C29.4282 30.5172 29.4541 30.5569 29.493 30.6065" stroke="black" stroke-width="0.788177" stroke-linecap="round" stroke-linejoin="round"/>
<path d="M94.3803 51.2766C94.3803 51.2766 94.4273 51.2297 94.5097 51.1476" stroke="black" stroke-width="0.788177" stroke-linecap="round" stroke-linejoin="round"/>
<path d="M94.4373 51.2036C94.4726 51.1684 94.5197 51.1215 94.5668 51.0746" stroke="black" stroke-width="0.788177" stroke-linecap="round" stroke-linejoin="round"/>
<path d="M94.6185 51.03C94.6538 50.9913 94.7009 50.9397 94.7479 50.901" stroke="black" stroke-width="0.788177" stroke-linecap="round" stroke-linejoin="round"/>
<path d="M95.0144 50.5466C98.7315 46.9071 117.622 28.5091 120.853 27.6703C120.853 27.6703 125.221 26.3034 122.973 30.0866" stroke="black" stroke-width="0.788177" stroke-linecap="round" stroke-linejoin="round" stroke-dasharray="0.79 3.96"/>
<path d="M122.919 30.3004C122.88 30.3401 122.854 30.3798 122.816 30.4294" stroke="black" stroke-width="0.788177" stroke-linecap="round" stroke-linejoin="round"/>
<path d="M122.849 30.4308C122.81 30.4704 122.784 30.5101 122.745 30.5597" stroke="black" stroke-width="0.788177" stroke-linecap="round" stroke-linejoin="round"/>
<path d="M122.788 30.5008C122.749 30.5405 122.724 30.5802 122.685 30.6298" stroke="black" stroke-width="0.788177" stroke-linecap="round" stroke-linejoin="round"/>
<path d="M92.5398 94.632C92.5398 94.632 92.4927 94.671 92.4101 94.7619" stroke="black" stroke-width="0.788177" stroke-linecap="round" stroke-linejoin="round"/>
<path d="M92.4793 94.7055C92.444 94.7409 92.3968 94.7882 92.3496 94.8354" stroke="black" stroke-width="0.788177" stroke-linecap="round" stroke-linejoin="round"/>
<path d="M92.2979 94.8667C92.2625 94.9021 92.2153 94.9494 92.1682 94.9966" stroke="black" stroke-width="0.788177" stroke-linecap="round" stroke-linejoin="round"/>
<path d="M91.822 95.264C89.6007 97.6134 82.3219 106.274 84.3315 117.042C84.3315 117.042 83.7333 126.698 77.2173 130.243" stroke="black" stroke-width="0.788177" stroke-linecap="round" stroke-linejoin="round" stroke-dasharray="0.78 3.92"/>
<path d="M77.0815 130.36C77.0416 130.386 76.9917 130.425 76.9518 130.451" stroke="black" stroke-width="0.788177" stroke-linecap="round" stroke-linejoin="round"/>
<path d="M76.9471 130.429C76.9072 130.455 76.8573 130.481 76.8174 130.52" stroke="black" stroke-width="0.788177" stroke-linecap="round" stroke-linejoin="round"/>
<path d="M76.8698 130.477C76.8235 130.503 76.7864 130.529 76.7401 130.555" stroke="black" stroke-width="0.788177" stroke-linecap="round" stroke-linejoin="round"/>
<path d="M60.9047 94.658C60.9047 94.658 60.9519 94.697 61.0344 94.7879" stroke="black" stroke-width="0.788177" stroke-linecap="round" stroke-linejoin="round"/>
<path d="M60.9652 94.7153C61.0006 94.7507 61.0478 94.798 61.0949 94.8452" stroke="black" stroke-width="0.788177" stroke-linecap="round" stroke-linejoin="round"/>
<path d="M61.1433 94.8902C61.1787 94.9256 61.2258 94.9729 61.273 95.0201" stroke="black" stroke-width="0.788177" stroke-linecap="round" stroke-linejoin="round"/>
<path d="M61.5331 95.2907C63.7679 97.6401 71.0568 106.277 69.0405 117.008C69.0405 117.008 69.6387 126.641 76.1748 130.175" stroke="black" stroke-width="0.788177" stroke-linecap="round" stroke-linejoin="round" stroke-dasharray="0.79 3.97"/>
<path d="M76.4 130.293C76.4399 130.319 76.4898 130.358 76.5297 130.384" stroke="black" stroke-width="0.788177" stroke-linecap="round" stroke-linejoin="round"/>
<path d="M76.5344 130.37C76.5744 130.396 76.6242 130.422 76.6641 130.461" stroke="black" stroke-width="0.788177" stroke-linecap="round" stroke-linejoin="round"/>
<path d="M76.6084 130.418C76.6547 130.444 76.6918 130.47 76.7381 130.496" stroke="black" stroke-width="0.788177" stroke-linecap="round" stroke-linejoin="round"/>
</svg>
