<svg width="20" height="17" viewBox="0 0 20 17" fill="none" xmlns="http://www.w3.org/2000/svg">
<path fill-rule="evenodd" clip-rule="evenodd" d="M14.9349 3.23655L16.9946 3.24729C18.4396 3.24729 19.6258 4.43009 19.6257 5.87092V14.3549C19.6257 15.7957 18.4396 17.0001 16.9946 17.0001H2.63112C1.18617 17.0001 0 15.7957 0 14.3549V5.87092C0 4.43009 1.18617 3.24729 2.63116 3.24729L4.53982 3.23655L6.57787 0.290326C6.69647 0.118274 6.89058 0 7.10626 0H12.4224C12.6381 0 12.8429 0.118239 12.9616 0.301064L14.9349 3.23655ZM16.9946 15.7097C17.7278 15.7097 18.3317 15.0861 18.3317 14.3549H18.321V5.871C18.321 5.1398 17.7171 4.53766 16.9839 4.53766L14.5683 4.51611C14.3635 4.51611 14.1586 4.39786 14.04 4.22584L12.0774 1.30102H7.45135L5.41328 4.2473C5.29468 4.41931 5.10058 4.53762 4.88491 4.53762H2.63116C1.89792 4.53762 1.29405 5.13973 1.29405 5.87092V14.3549C1.29405 15.0861 1.89788 15.7097 2.63116 15.7097H16.9946ZM5.28384 9.36561C5.28384 6.84947 7.33269 4.79567 9.86678 4.79567C12.3901 4.79567 14.4497 6.84942 14.4497 9.36557C14.4497 11.8817 12.3901 13.9355 9.86678 13.9355C7.34347 13.9355 5.28384 11.8817 5.28384 9.36561ZM6.57783 9.36557C6.57783 11.172 8.05516 12.6452 9.86678 12.6452C11.6784 12.6452 13.1557 11.172 13.1557 9.36557C13.1557 7.55912 11.6784 6.086 9.86678 6.086C8.05518 6.086 6.57783 7.55912 6.57783 9.36557ZM16.2506 6.68818C16.2506 6.55158 16.1395 6.44084 16.0025 6.44084C15.8656 6.44084 15.7545 6.55158 15.7545 6.68818C15.7545 6.82477 15.8656 6.9355 16.0025 6.9355C16.1395 6.9355 16.2506 6.82477 16.2506 6.68818ZM16.0025 5.79567C15.5065 5.79567 15.1075 6.19353 15.1075 6.68818C15.1075 7.18284 15.5065 7.58066 16.0025 7.58066C16.4986 7.58066 16.8976 7.18284 16.8976 6.68818C16.8976 6.19353 16.4986 5.79567 16.0025 5.79567ZM16.0025 7.086C15.7761 7.086 15.6036 6.90321 15.6036 6.68818C15.6036 6.47316 15.7869 6.29033 16.0025 6.29033C16.2182 6.29033 16.4015 6.47316 16.4015 6.68818C16.4015 6.90321 16.229 7.086 16.0025 7.086Z" fill="#28D8A1"/>
</svg>
