<svg width="296" height="376" viewBox="0 0 296 376" fill="none" xmlns="http://www.w3.org/2000/svg">
<path fill-rule="evenodd" clip-rule="evenodd" d="M148.353 16.4301C148.353 16.4301 28.096 8.73876 32.4176 159.908C32.4176 159.908 35.3855 198.111 45.6363 241.823C45.6363 241.823 50.817 276.509 54.2795 286.089C54.2795 286.089 69.301 358.534 146.316 371.566C146.316 371.566 209.825 375.493 242.419 289.651C242.419 289.651 249.683 263.94 252.078 233.682C251.72 238.182 256.927 206.219 264.281 160.416C264.288 160.416 274.675 16.9316 148.353 16.4301Z" stroke="white" stroke-width="2.21709"/>
<path fill-rule="evenodd" clip-rule="evenodd" d="M271.609 1.11128H294.658L294.422 32.2955L271.609 1.11128Z" fill="#28D8A1" stroke="#28D8A1" stroke-width="2.21709"/>
<path fill-rule="evenodd" clip-rule="evenodd" d="M24.1688 1.11128H1.1196L1.3556 32.2955L24.1688 1.11128Z" fill="#28D8A1" stroke="#28D8A1" stroke-width="2.21709"/>
<path fill-rule="evenodd" clip-rule="evenodd" d="M271.609 371.594H294.658L294.422 340.409L271.609 371.594Z" fill="#28D8A1" stroke="#28D8A1" stroke-width="2.21709"/>
<path fill-rule="evenodd" clip-rule="evenodd" d="M24.1688 371.594H1.1196L1.3556 340.409L24.1688 371.594Z" fill="#28D8A1" stroke="#28D8A1" stroke-width="2.21709"/>
<path d="M148.567 9.58522V376" stroke="white" stroke-width="1.10854"/>
<path d="M28.5753 159.744C28.5753 159.744 39.4579 157.21 44.1674 156.355" stroke="white" stroke-width="1.10854"/>
<path d="M269.575 159.744C269.575 159.744 258.693 157.21 253.983 156.355" stroke="white" stroke-width="1.10854"/>
<path d="M44.5745 156.936L44.3173 157.168" stroke="white" stroke-width="1.10854" stroke-linecap="round" stroke-linejoin="round"/>
<path d="M44.4452 157.04L44.1934 157.135C44.1934 157.135 44.2144 157.187 44.2564 157.292" stroke="white" stroke-width="1.10854" stroke-linecap="round" stroke-linejoin="round"/>
<path d="M44.2261 157.255C44.2512 157.322 44.2764 157.406 44.3016 157.507" stroke="white" stroke-width="1.10854" stroke-linecap="round" stroke-linejoin="round"/>
<path d="M44.3367 157.737C44.3619 157.821 44.387 157.905 44.4374 157.989" stroke="white" stroke-width="1.10854" stroke-linecap="round" stroke-linejoin="round"/>
<path d="M44.6099 158.778C46.5752 165.599 56.5321 190.846 96.0538 188.119C96.0538 188.119 113.755 186.57 129.608 178.46C129.608 178.46 152.313 167.5 170.789 179.983C170.789 179.983 183.147 189.713 203.835 188.119C203.835 188.119 246.936 188.477 254.453 157.105" stroke="white" stroke-width="1.10854" stroke-linecap="round" stroke-linejoin="round" stroke-dasharray="1.11 5.55"/>
<path d="M254.564 156.785C254.589 156.701 254.614 156.617 254.639 156.533" stroke="white" stroke-width="1.10854" stroke-linecap="round" stroke-linejoin="round"/>
<path d="M254.629 156.492C254.654 156.408 254.679 156.324 254.704 156.24" stroke="white" stroke-width="1.10854" stroke-linecap="round" stroke-linejoin="round"/>
<path d="M254.791 156.277C254.812 156.224 254.833 156.172 254.854 156.119L254.602 156.025" stroke="white" stroke-width="1.10854" stroke-linecap="round" stroke-linejoin="round"/>
<path d="M254.736 156.152L254.479 155.921" stroke="white" stroke-width="1.10854" stroke-linecap="round" stroke-linejoin="round"/>
<path d="M254.352 155.853L254.095 155.622" stroke="white" stroke-width="1.10854" stroke-linecap="round" stroke-linejoin="round"/>
<path d="M253.327 155.01L148.734 72.3245" stroke="white" stroke-width="1.10854" stroke-linecap="round" stroke-linejoin="round" stroke-dasharray="1.11 5.55"/>
<path d="M148.529 72.1915L148.272 71.9599" stroke="white" stroke-width="1.10854" stroke-linecap="round" stroke-linejoin="round"/>
<path d="M148.295 72.0091L148.038 71.7776" stroke="white" stroke-width="1.10854" stroke-linecap="round" stroke-linejoin="round"/>
<path d="M148.095 71.9L147.963 71.6733L147.843 71.9252" stroke="white" stroke-width="1.10854" stroke-linecap="round" stroke-linejoin="round"/>
<path d="M147.969 71.7776L147.712 72.0349" stroke="white" stroke-width="1.10854" stroke-linecap="round" stroke-linejoin="round"/>
<path d="M147.592 72.0901L147.335 72.3474" stroke="white" stroke-width="1.10854" stroke-linecap="round" stroke-linejoin="round"/>
<path d="M146.586 72.7733L45.0002 156.442" stroke="white" stroke-width="1.10854" stroke-linecap="round" stroke-linejoin="round" stroke-dasharray="1.11 5.53"/>
<path d="M44.8084 156.748L44.5513 157.005" stroke="white" stroke-width="1.10854" stroke-linecap="round" stroke-linejoin="round"/>
<path d="M231.408 183.491L231.202 183.748" stroke="white" stroke-width="1.10854" stroke-linecap="round" stroke-linejoin="round"/>
<path d="M231.317 183.628L231.111 183.886" stroke="white" stroke-width="1.10854" stroke-linecap="round" stroke-linejoin="round"/>
<path d="M231.052 184.032L230.846 184.29" stroke="white" stroke-width="1.10854" stroke-linecap="round" stroke-linejoin="round"/>
<path d="M230.309 184.933L185.776 253.428" stroke="white" stroke-width="1.10854" stroke-linecap="round" stroke-linejoin="round" stroke-dasharray="1.11 5.55"/>
<path d="M185.665 253.832L185.459 254.09" stroke="white" stroke-width="1.10854" stroke-linecap="round" stroke-linejoin="round"/>
<path d="M185.538 254.081L185.333 254.338" stroke="white" stroke-width="1.10854" stroke-linecap="round" stroke-linejoin="round"/>
<path d="M185.425 254.218L185.224 254.335L185.325 254.47" stroke="white" stroke-width="1.10854" stroke-linecap="round" stroke-linejoin="round"/>
<path d="M185.274 254.453L185.377 254.71" stroke="white" stroke-width="1.10854" stroke-linecap="round" stroke-linejoin="round"/>
<path d="M185.381 254.929L185.484 255.187" stroke="white" stroke-width="1.10854" stroke-linecap="round" stroke-linejoin="round"/>
<path d="M185.666 255.973L200.616 310.351" stroke="white" stroke-width="1.10854" stroke-linecap="round" stroke-linejoin="round" stroke-dasharray="1.12 5.59"/>
<path d="M200.746 310.828L200.848 311.086" stroke="white" stroke-width="1.10854" stroke-linecap="round" stroke-linejoin="round"/>
<path d="M200.838 311.102L200.941 311.36" stroke="white" stroke-width="1.10854" stroke-linecap="round" stroke-linejoin="round"/>
<path d="M200.896 311.265L200.999 311.523" stroke="white" stroke-width="1.10854" stroke-linecap="round" stroke-linejoin="round"/>
<path d="M65.8775 183.517L66.0836 183.774" stroke="white" stroke-width="1.10854" stroke-linecap="round" stroke-linejoin="round"/>
<path d="M65.9943 183.654L66.2004 183.911" stroke="white" stroke-width="1.10854" stroke-linecap="round" stroke-linejoin="round"/>
<path d="M66.2307 184.065L66.4368 184.323" stroke="white" stroke-width="1.10854" stroke-linecap="round" stroke-linejoin="round"/>
<path d="M66.8215 184.966L111.447 253.519" stroke="white" stroke-width="1.10854" stroke-linecap="round" stroke-linejoin="round" stroke-dasharray="1.11 5.56"/>
<path d="M111.714 253.924L111.92 254.182" stroke="white" stroke-width="1.10854" stroke-linecap="round" stroke-linejoin="round"/>
<path d="M111.869 254.172L112.075 254.429" stroke="white" stroke-width="1.10854" stroke-linecap="round" stroke-linejoin="round"/>
<path d="M111.96 254.309L112.161 254.426L112.06 254.561" stroke="white" stroke-width="1.10854" stroke-linecap="round" stroke-linejoin="round"/>
<path d="M112.05 254.544L111.947 254.801" stroke="white" stroke-width="1.10854" stroke-linecap="round" stroke-linejoin="round"/>
<path d="M111.92 255.02L111.817 255.278" stroke="white" stroke-width="1.10854" stroke-linecap="round" stroke-linejoin="round"/>
<path d="M111.558 256.065L96.572 310.488" stroke="white" stroke-width="1.10854" stroke-linecap="round" stroke-linejoin="round" stroke-dasharray="1.12 5.6"/>
<path d="M96.519 310.965L96.4159 311.223" stroke="white" stroke-width="1.10854" stroke-linecap="round" stroke-linejoin="round"/>
<path d="M96.4778 311.246L96.3747 311.503" stroke="white" stroke-width="1.10854" stroke-linecap="round" stroke-linejoin="round"/>
<path d="M96.4025 311.402L96.2995 311.66" stroke="white" stroke-width="1.10854" stroke-linecap="round" stroke-linejoin="round"/>
<path d="M148.931 9.2918L149.059 9.54917" stroke="white" stroke-width="1.10854" stroke-linecap="round" stroke-linejoin="round"/>
<path d="M148.998 9.44818L149.126 9.70555" stroke="white" stroke-width="1.10854" stroke-linecap="round" stroke-linejoin="round"/>
<path d="M149.133 9.9107L149.262 10.1681" stroke="white" stroke-width="1.10854" stroke-linecap="round" stroke-linejoin="round"/>
<path d="M149.477 10.9265L208.571 186.658" stroke="white" stroke-width="1.10854" stroke-linecap="round" stroke-linejoin="round" stroke-dasharray="1.11 5.53"/>
<path d="M208.727 187.121L208.856 187.378" stroke="white" stroke-width="1.10854" stroke-linecap="round" stroke-linejoin="round"/>
<path d="M208.832 187.401L208.961 187.658" stroke="white" stroke-width="1.10854" stroke-linecap="round" stroke-linejoin="round"/>
<path d="M208.899 187.551L209.027 187.808" stroke="white" stroke-width="1.10854" stroke-linecap="round" stroke-linejoin="round"/>
<path d="M148.249 9.24628L148.121 9.50366" stroke="white" stroke-width="1.10854" stroke-linecap="round" stroke-linejoin="round"/>
<path d="M148.182 9.40266L148.053 9.66004" stroke="white" stroke-width="1.10854" stroke-linecap="round" stroke-linejoin="round"/>
<path d="M148.013 9.86518L147.885 10.1226" stroke="white" stroke-width="1.10854" stroke-linecap="round" stroke-linejoin="round"/>
<path d="M147.573 10.8813L88.5764 186.857" stroke="white" stroke-width="1.10854" stroke-linecap="round" stroke-linejoin="round" stroke-dasharray="1.11 5.54"/>
<path d="M88.5163 187.319L88.388 187.577" stroke="white" stroke-width="1.10854" stroke-linecap="round" stroke-linejoin="round"/>
<path d="M88.4732 187.593L88.3449 187.85" stroke="white" stroke-width="1.10854" stroke-linecap="round" stroke-linejoin="round"/>
<path d="M88.3729 187.749L88.2446 188.007" stroke="white" stroke-width="1.10854" stroke-linecap="round" stroke-linejoin="round"/>
<path d="M147.243 370.919L147.5 370.662" stroke="white" stroke-width="1.10854" stroke-linecap="round" stroke-linejoin="round"/>
<path d="M147.348 370.795L147.605 370.538" stroke="white" stroke-width="1.10854" stroke-linecap="round" stroke-linejoin="round"/>
<path d="M147.673 370.425L147.93 370.168" stroke="white" stroke-width="1.10854" stroke-linecap="round" stroke-linejoin="round"/>
<path d="M148.375 369.426L245.238 257.47L247.774 239.692C247.774 239.692 266.121 221.244 263.514 185.343C263.514 185.343 261.817 169.795 263.722 162.473" stroke="white" stroke-width="1.10854" stroke-linecap="round" stroke-linejoin="round" stroke-dasharray="1.11 5.55"/>
<path d="M263.852 162.159C263.877 162.069 263.927 161.979 263.952 161.907" stroke="white" stroke-width="1.10854" stroke-linecap="round" stroke-linejoin="round"/>
<path d="M263.944 161.879C263.969 161.789 264.019 161.699 264.07 161.627" stroke="white" stroke-width="1.10854" stroke-linecap="round" stroke-linejoin="round"/>
<path d="M264.011 161.723C264.061 161.633 264.086 161.561 264.137 161.471" stroke="white" stroke-width="1.10854" stroke-linecap="round" stroke-linejoin="round"/>
<path d="M148.167 370.99L147.91 370.733" stroke="white" stroke-width="1.10854" stroke-linecap="round" stroke-linejoin="round"/>
<path d="M148.063 370.867L147.806 370.61" stroke="white" stroke-width="1.10854" stroke-linecap="round" stroke-linejoin="round"/>
<path d="M147.744 370.503L147.487 370.246" stroke="white" stroke-width="1.10854" stroke-linecap="round" stroke-linejoin="round"/>
<path d="M146.849 369.504L49.7927 257.515L47.2466 239.737C47.2466 239.737 28.8643 221.283 31.4755 185.382C31.4755 185.382 33.175 169.827 31.2671 162.499" stroke="white" stroke-width="1.10854" stroke-linecap="round" stroke-linejoin="round" stroke-dasharray="1.11 5.53"/>
<path d="M31.2115 162.191C31.1863 162.101 31.1359 162.011 31.1107 161.94" stroke="white" stroke-width="1.10854" stroke-linecap="round" stroke-linejoin="round"/>
<path d="M31.1661 161.905C31.1409 161.815 31.0905 161.725 31.0401 161.653" stroke="white" stroke-width="1.10854" stroke-linecap="round" stroke-linejoin="round"/>
<path d="M31.0991 161.749C31.0487 161.659 31.0235 161.587 30.9731 161.497" stroke="white" stroke-width="1.10854" stroke-linecap="round" stroke-linejoin="round"/>
<path d="M47.582 241.127C47.582 241.127 47.6323 241.205 47.7581 241.381" stroke="white" stroke-width="1.10854" stroke-linecap="round" stroke-linejoin="round"/>
<path d="M47.6739 241.278C47.7242 241.357 47.7745 241.435 47.85 241.533" stroke="white" stroke-width="1.10854" stroke-linecap="round" stroke-linejoin="round"/>
<path d="M47.8884 241.706C47.9387 241.784 48.0142 241.862 48.0897 241.96" stroke="white" stroke-width="1.10854" stroke-linecap="round" stroke-linejoin="round"/>
<path d="M48.4539 242.626C52.0938 248.214 68.0119 266.939 112.581 256.025C112.581 256.025 149.332 243.928 186.212 255.512C186.212 255.512 226.134 270.102 250.496 244.46" stroke="white" stroke-width="1.10854" stroke-linecap="round" stroke-linejoin="round" stroke-dasharray="1.11 5.55"/>
<path d="M250.834 244.287C250.909 244.195 251.01 244.125 251.085 244.033" stroke="white" stroke-width="1.10854" stroke-linecap="round" stroke-linejoin="round"/>
<path d="M251.029 244.071C251.104 243.978 251.205 243.909 251.28 243.816" stroke="white" stroke-width="1.10854" stroke-linecap="round" stroke-linejoin="round"/>
<path d="M251.139 243.952C251.215 243.86 251.315 243.79 251.391 243.698" stroke="white" stroke-width="1.10854" stroke-linecap="round" stroke-linejoin="round"/>
<path d="M111.51 99.0984C111.51 99.0984 111.418 99.0071 111.259 98.8474" stroke="white" stroke-width="1.10854" stroke-linecap="round" stroke-linejoin="round"/>
<path d="M111.399 98.9883C111.331 98.9198 111.24 98.8285 111.148 98.7372" stroke="white" stroke-width="1.10854" stroke-linecap="round" stroke-linejoin="round"/>
<path d="M111.049 98.6444C110.981 98.576 110.889 98.4847 110.798 98.3934" stroke="white" stroke-width="1.10854" stroke-linecap="round" stroke-linejoin="round"/>
<path d="M110.104 97.7121C102.944 90.6673 66.5783 55.0672 60.365 53.4454C60.365 53.4454 51.9594 50.7988 56.2854 58.1225" stroke="white" stroke-width="1.10854" stroke-linecap="round" stroke-linejoin="round" stroke-dasharray="1.11 5.55"/>
<path d="M56.5382 58.5377C56.6135 58.6149 56.6637 58.6922 56.739 58.7887" stroke="white" stroke-width="1.10854" stroke-linecap="round" stroke-linejoin="round"/>
<path d="M56.6938 58.7844C56.7691 58.8616 56.8193 58.9389 56.8946 59.0354" stroke="white" stroke-width="1.10854" stroke-linecap="round" stroke-linejoin="round"/>
<path d="M56.7848 58.9204C56.8601 58.9977 56.9103 59.0749 56.9856 59.1715" stroke="white" stroke-width="1.10854" stroke-linecap="round" stroke-linejoin="round"/>
<path d="M182.821 99.3151C182.821 99.3151 182.913 99.2238 183.073 99.0639" stroke="white" stroke-width="1.10854" stroke-linecap="round" stroke-linejoin="round"/>
<path d="M182.932 99.1732C183.001 99.1047 183.092 99.0133 183.184 98.922" stroke="white" stroke-width="1.10854" stroke-linecap="round" stroke-linejoin="round"/>
<path d="M183.283 98.8357C183.352 98.7604 183.444 98.6599 183.535 98.5845" stroke="white" stroke-width="1.10854" stroke-linecap="round" stroke-linejoin="round"/>
<path d="M184.051 97.8965C191.261 90.8287 227.902 55.1007 234.169 53.4717C234.169 53.4717 242.641 50.8172 238.281 58.164" stroke="white" stroke-width="1.10854" stroke-linecap="round" stroke-linejoin="round" stroke-dasharray="1.11 5.57"/>
<path d="M238.177 58.5793C238.101 58.6566 238.051 58.7339 237.975 58.8305" stroke="white" stroke-width="1.10854" stroke-linecap="round" stroke-linejoin="round"/>
<path d="M238.04 58.8326C237.965 58.9099 237.914 58.9871 237.839 59.0837" stroke="white" stroke-width="1.10854" stroke-linecap="round" stroke-linejoin="round"/>
<path d="M237.923 58.9689C237.847 59.0462 237.797 59.1235 237.722 59.2201" stroke="white" stroke-width="1.10854" stroke-linecap="round" stroke-linejoin="round"/>
<path d="M179.055 183.141C179.055 183.141 178.964 183.216 178.805 183.393" stroke="white" stroke-width="1.10854" stroke-linecap="round" stroke-linejoin="round"/>
<path d="M178.939 183.283C178.871 183.352 178.779 183.444 178.688 183.536" stroke="white" stroke-width="1.10854" stroke-linecap="round" stroke-linejoin="round"/>
<path d="M178.589 183.595C178.521 183.664 178.43 183.756 178.339 183.848" stroke="white" stroke-width="1.10854" stroke-linecap="round" stroke-linejoin="round"/>
<path d="M177.672 184.365C173.394 188.917 159.375 205.698 163.246 226.561C163.246 226.561 162.094 245.272 149.544 252.14" stroke="white" stroke-width="1.10854" stroke-linecap="round" stroke-linejoin="round" stroke-dasharray="1.1 5.51"/>
<path d="M149.283 252.368C149.206 252.419 149.11 252.494 149.033 252.545" stroke="white" stroke-width="1.10854" stroke-linecap="round" stroke-linejoin="round"/>
<path d="M149.024 252.502C148.947 252.552 148.851 252.603 148.774 252.678" stroke="white" stroke-width="1.10854" stroke-linecap="round" stroke-linejoin="round"/>
<path d="M148.876 252.594C148.786 252.644 148.714 252.695 148.625 252.745" stroke="white" stroke-width="1.10854" stroke-linecap="round" stroke-linejoin="round"/>
<path d="M118.08 183.191C118.08 183.191 118.171 183.267 118.33 183.443" stroke="white" stroke-width="1.10854" stroke-linecap="round" stroke-linejoin="round"/>
<path d="M118.196 183.302C118.265 183.371 118.356 183.463 118.447 183.554" stroke="white" stroke-width="1.10854" stroke-linecap="round" stroke-linejoin="round"/>
<path d="M118.54 183.641C118.608 183.71 118.699 183.801 118.79 183.893" stroke="white" stroke-width="1.10854" stroke-linecap="round" stroke-linejoin="round"/>
<path d="M119.29 184.417C123.594 188.968 137.632 205.698 133.749 226.484C133.749 226.484 134.901 245.144 147.49 251.99" stroke="white" stroke-width="1.10854" stroke-linecap="round" stroke-linejoin="round" stroke-dasharray="1.12 5.58"/>
<path d="M147.923 252.218C148 252.269 148.097 252.344 148.174 252.395" stroke="white" stroke-width="1.10854" stroke-linecap="round" stroke-linejoin="round"/>
<path d="M148.182 252.368C148.259 252.419 148.355 252.469 148.432 252.545" stroke="white" stroke-width="1.10854" stroke-linecap="round" stroke-linejoin="round"/>
<path d="M148.324 252.461C148.414 252.511 148.485 252.561 148.575 252.612" stroke="white" stroke-width="1.10854" stroke-linecap="round" stroke-linejoin="round"/>
</svg>
