<svg width="11" height="15" viewBox="0 0 11 15" fill="none" xmlns="http://www.w3.org/2000/svg">
<g clip-path="url(#clip0_67_1210)">
<path d="M6.14735 1.21289C5.78927 0.84668 5.20776 0.84668 4.84969 1.21289L0.266357 5.90039C-0.0917155 6.2666 -0.0917155 6.86133 0.266357 7.22754C0.62443 7.59375 1.20594 7.59375 1.56401 7.22754L4.58328 4.13672V13.125C4.58328 13.6436 4.99292 14.0625 5.49995 14.0625C6.00698 14.0625 6.41662 13.6436 6.41662 13.125V4.13672L9.43589 7.22461C9.79396 7.59082 10.3755 7.59082 10.7335 7.22461C11.0916 6.8584 11.0916 6.26367 10.7335 5.89746L6.15021 1.20996L6.14735 1.21289Z" fill="#5E9B68"/>
</g>
<defs>
<clipPath id="clip0_67_1210">
<rect width="11" height="15" fill="white"/>
</clipPath>
</defs>
</svg>
