<svg width="31" height="36" viewBox="0 0 31 36" fill="none" xmlns="http://www.w3.org/2000/svg">
<g clip-path="url(#clip0_69_2507)">
<path d="M8.85714 0C9.77746 0 10.5179 0.752344 10.5179 1.6875V4.5H20.4821V1.6875C20.4821 0.752344 21.2225 0 22.1429 0C23.0632 0 23.8036 0.752344 23.8036 1.6875V4.5H26.5714C29.0141 4.5 31 6.51797 31 9V10.125V13.5V31.5C31 33.982 29.0141 36 26.5714 36H4.42857C1.98594 36 0 33.982 0 31.5V13.5V10.125V9C0 6.51797 1.98594 4.5 4.42857 4.5H7.19643V1.6875C7.19643 0.752344 7.93683 0 8.85714 0ZM27.6786 13.5H3.32143V31.5C3.32143 32.1188 3.81964 32.625 4.42857 32.625H26.5714C27.1804 32.625 27.6786 32.1188 27.6786 31.5V13.5ZM22.7656 20.8828L15.0156 28.7578C14.3652 29.4188 13.3134 29.4188 12.6699 28.7578L8.24129 24.2578C7.59085 23.5969 7.59085 22.5281 8.24129 21.8742C8.89174 21.2203 9.94353 21.2133 10.5871 21.8742L13.8393 25.1789L20.4129 18.4992C21.0634 17.8383 22.1152 17.8383 22.7587 18.4992C23.4022 19.1602 23.4092 20.2289 22.7587 20.8828H22.7656Z" fill="#28D8A1"/>
</g>
<defs>
<clipPath id="clip0_69_2507">
<rect width="31" height="36" fill="white"/>
</clipPath>
</defs>
</svg>
