<svg width="44" height="29" viewBox="0 0 44 29" fill="none" xmlns="http://www.w3.org/2000/svg">
<path d="M28.4895 1.57019C28.0312 1.36967 27.5439 1.25083 27.047 1.21544L8.66729 0.00260206C8.04309 -0.0345618 7.46384 0.318663 7.21385 0.890083C6.96386 1.4615 7.09758 2.12665 7.54852 2.55985L10.3075 5.17565C8.74094 6.22932 7.45977 7.72467 6.66524 9.54076L5.96972 11.1306C5.26678 12.7373 3.93043 14.1276 2.70793 15.1499C2.01835 15.7244 1.28279 16.2654 0.504085 16.7201C0.216579 16.8842 0.0270429 17.1787 0.00266429 17.5118C-0.0217143 17.8449 0.121891 18.1639 0.38396 18.3662L3.60943 20.8558C3.81987 21.022 4.09431 21.0881 4.3606 21.0496C4.6269 21.011 4.86808 20.8604 5.01978 20.6369C6.56579 18.4284 7.27293 16.1494 7.59144 14.4351C7.76184 13.5525 7.87742 12.6257 7.8671 11.7247L8.47599 10.3329C9.22349 8.62435 10.5061 7.26444 12.072 6.41268C13.1856 5.8551 14.44 5.56132 15.7396 5.61089L26.1508 6.00681C26.694 6.02876 27.1213 6.48529 27.0994 7.02844C27.0775 7.57158 26.621 7.99872 26.0777 7.97676L15.6666 7.58085C14.8436 7.5511 14.0412 7.70558 13.3099 8.00576L20.9153 15.2156C21.2785 15.5565 21.6966 15.8337 22.1549 16.0343C22.6133 16.2348 23.1006 16.3536 23.5975 16.389L41.9754 17.6213C42.5971 17.6641 43.1789 17.3052 43.4288 16.7338C43.6788 16.1624 43.5451 15.4972 43.0942 15.064L29.7292 2.38887C29.3659 2.04797 28.9479 1.77072 28.4895 1.57019ZM8.31846 18.0897C7.44473 20.0869 11.4027 24.2922 17.4008 26.9163C23.3989 29.5404 29.1737 29.5931 30.0475 27.596L32.7806 18.991L23.4618 18.3788C22.7347 18.3303 22.0231 18.1538 21.3611 17.8641C20.699 17.5745 20.0808 17.1692 19.5574 16.6706L12.7831 10.2423L8.31846 18.0897Z" fill="#28D8A1"/>
</svg>
