<svg width="22" height="17" viewBox="0 0 22 17" fill="none" xmlns="http://www.w3.org/2000/svg">
<path d="M3.19909 4.25C3.19909 3.12283 3.64849 2.04183 4.44841 1.2448C5.24834 0.447767 6.33328 0 7.46455 0C8.59581 0 9.68075 0.447767 10.4807 1.2448C11.2806 2.04183 11.73 3.12283 11.73 4.25C11.73 5.37717 11.2806 6.45817 10.4807 7.2552C9.68075 8.05223 8.59581 8.5 7.46455 8.5C6.33328 8.5 5.24834 8.05223 4.44841 7.2552C3.64849 6.45817 3.19909 5.37717 3.19909 4.25ZM0 16.0139C0 12.7434 2.65924 10.0938 5.94164 10.0938H8.98745C12.2698 10.0938 14.9291 12.7434 14.9291 16.0139C14.9291 16.5584 14.4859 17 13.9394 17H0.989719C0.443207 17 0 16.5584 0 16.0139ZM15.7289 6.64062H20.5275C20.9707 6.64062 21.3273 6.9959 21.3273 7.4375C21.3273 7.8791 20.9707 8.23438 20.5275 8.23438H15.7289C15.2857 8.23438 14.9291 7.8791 14.9291 7.4375C14.9291 6.9959 15.2857 6.64062 15.7289 6.64062Z" fill="#D93939"/>
</svg>
