<svg width="39" height="31" viewBox="0 0 39 31" fill="none" xmlns="http://www.w3.org/2000/svg">
<path d="M9.75 3.875C9.75 1.7377 11.4989 0 13.65 0H35.1C37.2511 0 39 1.7377 39 3.875V21.3125C39 23.4498 37.2511 25.1875 35.1 25.1875H20.5238C19.8047 23.6436 18.7017 22.3115 17.3306 21.3125H23.4V19.375C23.4 18.3033 24.2714 17.4375 25.35 17.4375H29.25C30.3286 17.4375 31.2 18.3033 31.2 19.375V21.3125H35.1V3.875H13.65V6.84785C12.5044 6.18789 11.1698 5.8125 9.75 5.8125V3.875ZM9.75 7.75C10.5182 7.75 11.2789 7.90034 11.9887 8.19245C12.6985 8.48456 13.3434 8.9127 13.8866 9.45244C14.4298 9.99218 14.8607 10.6329 15.1547 11.3382C15.4487 12.0434 15.6 12.7992 15.6 13.5625C15.6 14.3258 15.4487 15.0816 15.1547 15.7868C14.8607 16.4921 14.4298 17.1328 13.8866 17.6726C13.3434 18.2123 12.6985 18.6404 11.9887 18.9326C11.2789 19.2247 10.5182 19.375 9.75 19.375C8.98177 19.375 8.22106 19.2247 7.5113 18.9326C6.80155 18.6404 6.15665 18.2123 5.61343 17.6726C5.0702 17.1328 4.6393 16.4921 4.3453 15.7868C4.05131 15.0816 3.9 14.3258 3.9 13.5625C3.9 12.7992 4.05131 12.0434 4.3453 11.3382C4.6393 10.6329 5.0702 9.99218 5.61343 9.45244C6.15665 8.9127 6.80155 8.48456 7.5113 8.19245C8.22106 7.90034 8.98177 7.75 9.75 7.75ZM8.12297 21.3125H11.3709C15.862 21.3125 19.5 24.9271 19.5 29.3834C19.5 30.2734 18.7748 31 17.873 31H1.62703C0.725156 31 0 30.2795 0 29.3834C0 24.9271 3.63797 21.3125 8.12297 21.3125Z" fill="#28D8A1"/>
</svg>
