<svg width="23" height="26" viewBox="0 0 23 26" fill="none" xmlns="http://www.w3.org/2000/svg">
<path d="M6.5 0C7.17539 0 7.71875 0.543359 7.71875 1.21875V3.25H15.0312V1.21875C15.0312 0.543359 15.5746 0 16.25 0C16.9254 0 17.4688 0.543359 17.4688 1.21875V3.25H19.5C21.2926 3.25 22.75 4.70742 22.75 6.5V7.3125V9.75V22.75C22.75 24.5426 21.2926 26 19.5 26H3.25C1.45742 26 0 24.5426 0 22.75V9.75V7.3125V6.5C0 4.70742 1.45742 3.25 3.25 3.25H5.28125V1.21875C5.28125 0.543359 5.82461 0 6.5 0ZM20.3125 9.75H2.4375V22.75C2.4375 23.1969 2.80312 23.5625 3.25 23.5625H19.5C19.9469 23.5625 20.3125 23.1969 20.3125 22.75V9.75ZM15.4883 14.2695L13.1016 16.6562L15.4883 19.043C15.9656 19.5203 15.9656 20.2922 15.4883 20.7645C15.0109 21.2367 14.2391 21.2418 13.7668 20.7645L11.3801 18.3777L8.99336 20.7645C8.51602 21.2418 7.74414 21.2418 7.27187 20.7645C6.79961 20.2871 6.79453 19.5152 7.27187 19.043L9.65859 16.6562L7.27187 14.2695C6.79453 13.7922 6.79453 13.0203 7.27187 12.548C7.74922 12.0758 8.52109 12.0707 8.99336 12.548L11.3801 14.9348L13.7668 12.548C14.2441 12.0707 15.016 12.0707 15.4883 12.548C15.9605 13.0254 15.9656 13.7973 15.4883 14.2695Z" fill="#D93939" fill-opacity="0.2"/>
</svg>
