<svg width="21" height="15" viewBox="0 0 21 15" fill="none" xmlns="http://www.w3.org/2000/svg">
<path fill-rule="evenodd" clip-rule="evenodd" d="M19.2953 12.7606H1.70468C1.57269 12.7606 1.46116 12.6496 1.46116 12.5171V2.13424L10.0999 7.78836C10.2217 7.86775 10.3605 7.90818 10.4998 7.90818C10.6415 7.90818 10.7827 7.86727 10.9055 7.78544L19.5389 2.02416V12.5171C19.5389 12.6496 19.4273 12.7606 19.2953 12.7606ZM17.7494 1.46113L10.4963 6.30189L3.10102 1.46113H17.7494ZM20.1277 0.226477C19.8803 0.0866943 19.5993 0 19.2953 0H1.70466C0.765151 0 0 0.764663 0 1.70466V12.5171C0 13.4571 0.765151 14.2218 1.70466 14.2218H19.2953C20.2348 14.2218 21 13.4571 21 12.5171V1.70466C21 1.2181 20.792 0.781223 20.4638 0.47C20.3746 0.35457 20.2577 0.271772 20.1277 0.226477Z" fill="#BBBBBB"/>
</svg>
