<svg width="19" height="19" viewBox="0 0 19 19" fill="none" xmlns="http://www.w3.org/2000/svg">
<path fill-rule="evenodd" clip-rule="evenodd" d="M12.4191 6.75266L7.98147 11.135L6.77238 9.75269C6.50342 9.44523 6.03557 9.41365 5.72763 9.6831C5.41968 9.95256 5.38859 10.4199 5.65804 10.7279L7.38532 12.7019C7.51955 12.8554 7.71153 12.9467 7.91534 12.9541C7.92472 12.9546 7.9336 12.9546 7.94249 12.9546C8.13693 12.9546 8.32397 12.8781 8.46264 12.7414L13.4594 7.80629C13.7501 7.51858 13.753 7.04975 13.4658 6.75907C13.1786 6.4684 12.7098 6.46544 12.4191 6.75266ZM9.50001 17.5195C5.07769 17.5195 1.48052 13.9223 1.48052 9.50001C1.48052 5.07819 5.07769 1.48052 9.50001 1.48052C13.9218 1.48052 17.5195 5.07819 17.5195 9.50001C17.5195 13.9223 13.9218 17.5195 9.50001 17.5195ZM9.50002 0C4.26144 0 0 4.26193 0 9.50002C0 14.7381 4.26144 19 9.50002 19C14.7381 19 19 14.7381 19 9.50002C19 4.26193 14.7381 0 9.50002 0Z" fill="#28D8A1"/>
</svg>
