<svg width="14" height="14" viewBox="0 0 14 14" fill="none" xmlns="http://www.w3.org/2000/svg">
<path d="M8.07691 1.06795C8.07691 0.477239 7.59566 0 6.99999 0C6.40432 0 5.92307 0.477239 5.92307 1.06795V5.87371H1.07692C0.481249 5.87371 0 6.35095 0 6.94166C0 7.53237 0.481249 8.00961 1.07692 8.00961H5.92307V12.8154C5.92307 13.4061 6.40432 13.8833 6.99999 13.8833C7.59566 13.8833 8.07691 13.4061 8.07691 12.8154V8.00961H12.9231C13.5187 8.00961 14 7.53237 14 6.94166C14 6.35095 13.5187 5.87371 12.9231 5.87371H8.07691V1.06795Z" fill="white"/>
</svg>
