<svg width="25" height="25" viewBox="0 0 25 25" fill="none" xmlns="http://www.w3.org/2000/svg">
<g clip-path="url(#clip0_69_2253)">
<path d="M23.9277 8.06725C23.7294 7.55321 23.4956 7.05816 23.2297 6.5784L23.0033 6.18819C23.003 6.18767 23.0027 6.18714 23.0023 6.18662C22.6871 5.66138 22.3335 5.16448 21.9463 4.69591L23.9277 8.06725ZM23.9277 8.06725L23.9239 8.07105L23.9791 8.22107C24.0978 8.54381 23.9999 8.91122 23.7342 9.14998L23.733 9.15103L21.6187 11.0749L21.522 11.1629L21.5392 11.2926C21.5915 11.6876 21.62 12.0917 21.62 12.5C21.62 12.9083 21.5915 13.3124 21.5392 13.7074L21.522 13.8371L21.6187 13.9251L23.733 15.849L23.7342 15.85C23.9998 16.0887 24.0978 16.456 23.9792 16.7787C23.7693 17.3463 23.5164 17.8907 23.2248 18.4167L22.9984 18.8069C22.9981 18.8074 22.9978 18.808 22.9975 18.8085C22.6821 19.3339 22.3284 19.831 21.941 20.2997L21.9403 20.3005C21.7237 20.5649 21.3555 20.6617 21.0132 20.5528L21.0131 20.5528L18.2934 19.6885L18.1689 19.6489L18.0653 19.7285C17.4282 20.2183 16.7247 20.627 15.9741 20.9358L15.853 20.9856L15.825 21.1135L15.2147 23.9014L23.9277 8.06725ZM3.98171 20.5577L6.69613 19.6887L6.82086 19.6487L6.92471 19.7285C7.56185 20.2183 8.26532 20.627 9.0159 20.9358L9.137 20.9856L9.16501 21.1135L9.77531 23.9014L3.98171 20.5577ZM3.98171 20.5577C3.98165 20.5577 3.98159 20.5577 3.98153 20.5577C3.64118 20.6659 3.27152 20.5664 3.05357 20.3042C2.66629 19.8356 2.31269 19.3386 1.99742 18.8134M3.98171 20.5577L1.99742 18.8134M1.99742 18.8134C1.99711 18.8128 1.9968 18.8123 1.99649 18.8118L1.7701 18.4216C1.47855 17.8956 1.2256 17.3513 1.01572 16.7837C0.897091 16.461 0.995061 16.0936 1.26074 15.8549L1.26189 15.8539L3.37615 13.93L3.47274 13.8421L3.45578 13.7127C3.40337 13.3124 3.37489 12.9083 3.37489 12.5C3.37489 12.0917 3.40338 11.6876 3.45573 11.2926L3.47292 11.1629L3.37615 11.0749L1.2619 9.15102L1.26073 9.14998C0.995065 8.91126 0.897094 8.54393 1.01571 8.22122C1.2256 7.65363 1.47854 7.10928 1.77009 6.58332L1.99743 6.19151C2.3128 5.66608 2.6665 5.16901 3.05392 4.70029L3.05459 4.69947C3.27123 4.43509 3.63941 4.3383 3.98171 4.44722L3.98179 4.44724L6.70152 5.3115L6.82602 5.35106L6.92959 5.27145C7.56674 4.7817 8.27021 4.37299 9.02079 4.06421L9.14188 4.01439L9.16989 3.88647L9.7802 1.09859L1.99742 18.8134ZM14.5291 24.5776L14.53 24.5775C14.8689 24.5222 15.1369 24.2551 15.2147 23.9016L14.5291 24.5776ZM14.5291 24.5776C13.8688 24.6877 13.1892 24.7451 12.495 24.7451C11.8008 24.7451 11.1212 24.6877 10.4609 24.5776L10.46 24.5775M14.5291 24.5776L10.46 24.5775M10.46 24.5775C10.1211 24.5222 9.85314 24.2551 9.77536 23.9016L10.46 24.5775ZM10.4649 0.422537L10.4649 0.422523C10.126 0.477778 9.85802 0.744863 9.78024 1.09838L10.4649 0.422537ZM10.4649 0.422537L10.4675 0.422084M10.4649 0.422537L10.4675 0.422084M10.4675 0.422084C11.1267 0.30745 11.8057 0.25 12.4999 0.25C13.1941 0.25 13.8737 0.307449 14.534 0.417498L14.5349 0.41764M10.4675 0.422084L14.5349 0.41764M14.5349 0.41764C14.8738 0.472895 15.1418 0.73998 15.2195 1.0935L14.5349 0.41764ZM15.8579 4.00951L15.8299 3.88159L15.2196 1.0937L15.8579 4.00951ZM15.8579 4.00951L15.979 4.05932M15.8579 4.00951L15.979 4.05932M15.979 4.05932C16.7296 4.36811 17.433 4.77682 18.0702 5.26657L18.1738 5.34618M15.979 4.05932L18.1738 5.34618M18.1738 5.34618L18.2983 5.30662M18.1738 5.34618L18.2983 5.30662M18.2983 5.30662L21.018 4.44236L21.0181 4.44233M18.2983 5.30662L21.0181 4.44233M21.0181 4.44233C21.3583 4.33408 21.7278 4.43346 21.9459 4.6954L21.0181 4.44233ZM12.4999 16.6562C13.6022 16.6562 14.6594 16.2184 15.4388 15.4389C16.2183 14.6595 16.6561 13.6023 16.6561 12.5C16.6561 11.3977 16.2183 10.3405 15.4388 9.56109C14.6594 8.78164 13.6022 8.34375 12.4999 8.34375C11.3976 8.34375 10.3404 8.78164 9.56098 9.56109C8.78153 10.3405 8.34364 11.3977 8.34364 12.5C8.34364 13.6023 8.78153 14.6595 9.56098 15.4389C10.3404 16.2184 11.3976 16.6562 12.4999 16.6562Z" stroke="black" stroke-width="0.5"/>
</g>
<defs>
<clipPath id="clip0_69_2253">
<rect width="25" height="25" fill="white"/>
</clipPath>
</defs>
</svg>
