<svg width="33" height="33" viewBox="0 0 33 33" fill="none" xmlns="http://www.w3.org/2000/svg">
<g clip-path="url(#clip0_67_1186)">
<path d="M15.364 18.2041L15.3654 18.2051L21.5512 22.3289C21.5514 22.3291 21.5516 22.3292 21.5518 22.3294C22.4931 22.9621 23.7639 22.7026 24.3926 21.7596C25.0236 20.8131 24.766 19.5492 23.8221 18.9199L23.8218 18.9198L18.5469 15.4072V7.73438C18.5469 6.60101 17.6334 5.6875 16.5 5.6875C15.3666 5.6875 14.4531 6.60101 14.4531 7.73438V16.5C14.4531 17.1831 14.7947 17.8217 15.364 18.2041ZM16.5 0.5C20.7435 0.5 24.8131 2.18571 27.8137 5.18629C30.8143 8.18687 32.5 12.2565 32.5 16.5C32.5 20.7435 30.8143 24.8131 27.8137 27.8137C24.8131 30.8143 20.7435 32.5 16.5 32.5C12.2565 32.5 8.18687 30.8143 5.18629 27.8137C2.18571 24.8131 0.5 20.7435 0.5 16.5C0.5 12.2565 2.18571 8.18687 5.18629 5.18629C8.18687 2.18571 12.2565 0.5 16.5 0.5Z" fill="#5E9B68" stroke="#5E9B68"/>
</g>
<defs>
<clipPath id="clip0_67_1186">
<rect width="33" height="33" fill="white"/>
</clipPath>
</defs>
</svg>
