<svg width="284" height="41" viewBox="0 0 284 41" fill="none" xmlns="http://www.w3.org/2000/svg">
<path fill-rule="evenodd" clip-rule="evenodd" d="M-1.9348e-05 38.4584H284V40.2334H-1.9348e-05V38.4584Z" fill="#28D8A1"/>
<path fill-rule="evenodd" clip-rule="evenodd" d="M48.313 8.04292C50.4157 8.04292 52.1202 9.73921 52.1202 11.8318C52.1202 13.9243 50.4157 15.6206 48.313 15.6206C46.2103 15.6206 44.5057 13.9243 44.5057 11.8318C44.5057 9.73921 46.2103 8.04292 48.313 8.04292Z" fill="#0D0D0D"/>
<path fill-rule="evenodd" clip-rule="evenodd" d="M58.7963 8.04292C60.9122 8.04292 62.6275 9.73921 62.6275 11.8318C62.6275 13.9243 60.9122 15.6206 58.7963 15.6206C56.6804 15.6206 54.9652 13.9243 54.9652 11.8318C54.9652 9.73921 56.6804 8.04292 58.7963 8.04292Z" fill="#0D0D0D"/>
<path fill-rule="evenodd" clip-rule="evenodd" d="M68.6462 8.04292C70.7489 8.04292 72.4535 9.73921 72.4535 11.8318C72.4535 13.9243 70.7489 15.6206 68.6462 15.6206C66.5435 15.6206 64.839 13.9243 64.839 11.8318C64.839 9.73921 66.5435 8.04292 68.6462 8.04292Z" fill="#0D0D0D"/>
<path fill-rule="evenodd" clip-rule="evenodd" d="M79.1296 8.04292C81.2455 8.04292 82.9607 9.73921 82.9607 11.8318C82.9607 13.9243 81.2455 15.6206 79.1296 15.6206C77.0137 15.6206 75.2984 13.9243 75.2984 11.8318C75.2984 9.73921 77.0137 8.04292 79.1296 8.04292Z" fill="#0D0D0D"/>
<path fill-rule="evenodd" clip-rule="evenodd" d="M89.2902 8.04292C91.4061 8.04292 93.1213 9.73921 93.1213 11.8318C93.1213 13.9243 91.4061 15.6206 89.2902 15.6206C87.1743 15.6206 85.459 13.9243 85.459 11.8318C85.459 9.73921 87.1743 8.04292 89.2902 8.04292Z" fill="#0D0D0D"/>
<path fill-rule="evenodd" clip-rule="evenodd" d="M99.4628 8.04292C101.579 8.04292 103.294 9.73921 103.294 11.8318C103.294 13.9243 101.579 15.6206 99.4628 15.6206C97.3469 15.6206 95.6317 13.9243 95.6317 11.8318C95.6317 9.73921 97.3469 8.04292 99.4628 8.04292Z" fill="#0D0D0D"/>
<path fill-rule="evenodd" clip-rule="evenodd" d="M109.94 8.04292C112.046 8.04292 113.753 9.73921 113.753 11.8318C113.753 13.9243 112.046 15.6206 109.94 15.6206C107.834 15.6206 106.127 13.9243 106.127 11.8318C106.127 9.73921 107.834 8.04292 109.94 8.04292Z" fill="#0D0D0D"/>
<path fill-rule="evenodd" clip-rule="evenodd" d="M120.065 8.04292C122.171 8.04292 123.878 9.73921 123.878 11.8318C123.878 13.9243 122.171 15.6206 120.065 15.6206C117.959 15.6206 116.252 13.9243 116.252 11.8318C116.252 9.73921 117.959 8.04292 120.065 8.04292Z" fill="#0D0D0D"/>
<path fill-rule="evenodd" clip-rule="evenodd" d="M18.4588 15.2474V16.0779C18.4588 16.4651 18.7719 16.7777 19.1587 16.7777C19.545 16.7777 19.8585 16.4651 19.8585 16.0779V15.2427C20.2873 14.9954 20.5803 14.5382 20.5803 14.011C20.5803 13.2271 19.9425 12.588 19.1587 12.588C18.3744 12.588 17.7366 13.2271 17.7366 14.011C17.7366 14.5289 18.0165 14.9954 18.4588 15.2474ZM25.6617 18.2847C25.6617 18.4527 25.6225 19.9504 24.2629 20.0064C22.2338 20.0857 14.1673 20.0157 14.067 20.011C13.9424 20.011 12.8498 19.9504 12.6412 17.9955V9.88654H25.6617V18.2847ZM19.1307 1.3997C23.0615 1.3997 23.2869 4.661 23.2995 5.01092V8.48684H14.9624L14.9619 5.20222C14.9661 5.04358 15.1014 1.3997 19.1307 1.3997ZM26.3615 8.48683H24.6991L24.6987 4.99226C24.6548 3.26596 23.4343 0 19.1307 0C14.8266 0 13.6065 3.37794 13.5627 5.18355V8.48683H11.9414C11.5551 8.48683 11.2415 8.79943 11.2415 9.18668V18.0328C11.2415 18.0561 11.2429 18.0794 11.2453 18.1028C11.5154 20.7948 13.2394 21.462 14.0726 21.4107C14.2849 21.4154 17.5388 21.4434 20.41 21.4434C22.0519 21.4434 23.5691 21.434 24.3198 21.406C26.488 21.3174 27.0614 19.3252 27.0614 18.2847V9.18668C27.0614 8.79943 26.7478 8.48683 26.3615 8.48683Z" fill="#28D8A1"/>
</svg>
