<svg width="108" height="108" viewBox="0 0 108 108" fill="none" xmlns="http://www.w3.org/2000/svg">
<path d="M10.125 6.75C9.22989 6.75 8.37145 7.10558 7.73851 7.73851C7.10558 8.37145 6.75 9.22989 6.75 10.125V30.375C6.75 31.2701 6.39442 32.1285 5.76149 32.7615C5.12855 33.3944 4.27011 33.75 3.375 33.75C2.47989 33.75 1.62145 33.3944 0.988515 32.7615C0.355579 32.1285 0 31.2701 0 30.375V10.125C0 7.43968 1.06674 4.86435 2.96554 2.96554C4.86435 1.06674 7.43968 0 10.125 0L30.375 0C31.2701 0 32.1285 0.355579 32.7615 0.988515C33.3944 1.62145 33.75 2.47989 33.75 3.375C33.75 4.27011 33.3944 5.12855 32.7615 5.76149C32.1285 6.39442 31.2701 6.75 30.375 6.75H10.125ZM74.25 3.375C74.25 2.47989 74.6056 1.62145 75.2385 0.988515C75.8714 0.355579 76.7299 0 77.625 0L97.875 0C100.56 0 103.136 1.06674 105.034 2.96554C106.933 4.86435 108 7.43968 108 10.125V30.375C108 31.2701 107.644 32.1285 107.011 32.7615C106.379 33.3944 105.52 33.75 104.625 33.75C103.73 33.75 102.871 33.3944 102.239 32.7615C101.606 32.1285 101.25 31.2701 101.25 30.375V10.125C101.25 9.22989 100.894 8.37145 100.261 7.73851C99.6286 7.10558 98.7701 6.75 97.875 6.75H77.625C76.7299 6.75 75.8714 6.39442 75.2385 5.76149C74.6056 5.12855 74.25 4.27011 74.25 3.375ZM3.375 74.25C4.27011 74.25 5.12855 74.6056 5.76149 75.2385C6.39442 75.8714 6.75 76.7299 6.75 77.625V97.875C6.75 98.7701 7.10558 99.6286 7.73851 100.261C8.37145 100.894 9.22989 101.25 10.125 101.25H30.375C31.2701 101.25 32.1285 101.606 32.7615 102.239C33.3944 102.871 33.75 103.73 33.75 104.625C33.75 105.52 33.3944 106.379 32.7615 107.011C32.1285 107.644 31.2701 108 30.375 108H10.125C7.43968 108 4.86435 106.933 2.96554 105.034C1.06674 103.136 0 100.56 0 97.875L0 77.625C0 76.7299 0.355579 75.8714 0.988515 75.2385C1.62145 74.6056 2.47989 74.25 3.375 74.25ZM104.625 74.25C105.52 74.25 106.379 74.6056 107.011 75.2385C107.644 75.8714 108 76.7299 108 77.625V97.875C108 100.56 106.933 103.136 105.034 105.034C103.136 106.933 100.56 108 97.875 108H77.625C76.7299 108 75.8714 107.644 75.2385 107.011C74.6056 106.379 74.25 105.52 74.25 104.625C74.25 103.73 74.6056 102.871 75.2385 102.239C75.8714 101.606 76.7299 101.25 77.625 101.25H97.875C98.7701 101.25 99.6286 100.894 100.261 100.261C100.894 99.6286 101.25 98.7701 101.25 97.875V77.625C101.25 76.7299 101.606 75.8714 102.239 75.2385C102.871 74.6056 103.73 74.25 104.625 74.25Z" fill="white"/>
<path d="M48.9903 25.9453C49.7875 25.9453 50.5521 26.262 51.1158 26.8257C51.6795 27.3894 51.9962 28.154 51.9962 28.9512V54C51.9962 54.5315 52.2073 55.0412 52.5831 55.417C52.9589 55.7928 53.4686 56.0039 54.0001 56.0039C54.5315 56.0039 55.0412 55.7928 55.417 55.417C55.7929 55.0412 56.004 54.5315 56.004 54V43.8482L56.3486 43.8322C57.6191 43.7841 58.9016 43.8001 59.619 43.9404C60.1561 44.0486 60.7973 44.3251 61.4145 44.6698C61.7231 44.8381 62.0157 45.259 62.0157 45.9283V54C62.0157 54.5315 62.2268 55.0412 62.6026 55.417C62.9784 55.7928 63.4881 56.0039 64.0196 56.0039C64.5511 56.0039 65.0608 55.7928 65.4366 55.417C65.8124 55.0412 66.0235 54.5315 66.0235 54V47.7278L66.4483 47.6877C67.7148 47.5915 68.7889 47.6476 69.2859 47.848C69.7588 48.0324 70.4882 48.6776 71.2337 49.5714C71.5583 49.9561 71.8348 50.3329 72.0352 50.6094V56.0039C72.0352 56.5354 72.2463 57.0451 72.6222 57.4209C72.998 57.7967 73.5077 58.0078 74.0391 58.0078C74.5706 58.0078 75.0803 57.7967 75.4561 57.4209C75.8319 57.0451 76.043 56.5354 76.043 56.0039V51.9961H77.4137C77.9738 51.9961 78.5277 52.1135 79.0397 52.3407C79.5516 52.568 80.0103 52.9 80.386 53.3154C80.7618 53.7308 81.0463 54.2203 81.2212 54.7524C81.3961 55.2845 81.4575 55.8474 81.4015 56.4047L80.3154 67.2859C80.1751 68.6843 79.7422 70.0375 79.0449 71.2576L73.454 81.0447C73.2788 81.3514 73.0256 81.6064 72.7202 81.7837C72.4147 81.9611 72.0678 82.0546 71.7146 82.0547H46.4574C46.0855 82.0547 45.721 81.9512 45.4046 81.7559C45.0882 81.5605 44.8325 81.281 44.6659 80.9485L39.7282 71.0693L29.6606 54.2966C29.402 53.8629 29.3106 53.3497 29.4036 52.8534C29.4966 52.3571 29.7677 51.9119 30.1658 51.6013C30.564 51.2908 31.0618 51.1363 31.5658 51.1669C32.0698 51.1976 32.5453 51.4112 32.9029 51.7676L42.5618 61.4265C42.8418 61.7072 43.1988 61.8986 43.5876 61.9763C43.9764 62.054 44.3796 62.0147 44.746 61.8632C45.1125 61.7118 45.4257 61.455 45.6462 61.1254C45.8666 60.7958 45.9844 60.4082 45.9844 60.0117V28.9512C45.9844 28.154 46.3011 27.3894 46.8648 26.8257C47.4285 26.262 48.1931 25.9453 48.9903 25.9453ZM56.004 39.8364V28.9512C56.004 27.091 55.265 25.3071 53.9497 23.9918C52.6344 22.6764 50.8504 21.9375 48.9903 21.9375C47.1302 21.9375 45.3462 22.6764 44.0309 23.9918C42.7156 25.3071 41.9766 27.091 41.9766 28.9512V55.1743L35.7365 48.9341C34.6866 47.89 33.2917 47.2649 31.8136 47.1762C30.3356 47.0874 28.8759 47.5411 27.7086 48.4521C26.5413 49.3632 25.7466 50.6689 25.4736 52.1242C25.2006 53.5795 25.4681 55.0845 26.2259 56.3566L36.2094 73.001L41.0789 82.74C41.5784 83.7387 42.3461 84.5785 43.2961 85.1653C44.2461 85.7522 45.3407 86.0628 46.4574 86.0625H71.7146C72.7742 86.0622 73.815 85.7817 74.7314 85.2496C75.6477 84.7176 76.4072 83.9527 76.9328 83.0326L82.5237 73.2495C83.5011 71.5394 84.1074 69.6426 84.3031 67.6827L85.3893 56.8015C85.5007 55.6872 85.3774 54.5619 85.0273 53.4981C84.6772 52.4344 84.1081 51.4558 83.3567 50.6255C82.6053 49.7951 81.6882 49.1315 80.6646 48.6772C79.641 48.223 78.5336 47.9883 77.4137 47.9883H75.0852C74.8349 47.649 74.5743 47.3175 74.3036 46.9943C73.5382 46.0766 72.2597 44.7179 70.7768 44.1247C69.3179 43.5396 67.3862 43.5957 66.1357 43.6919L65.6067 43.74C65.18 42.6478 64.3865 41.7381 63.3623 41.167C62.4403 40.6352 61.4431 40.2461 60.4045 40.0127C59.1621 39.7643 57.4428 39.7803 56.1964 39.8284L56.004 39.8364Z" fill="white"/>
</svg>
