<svg width="17" height="17" viewBox="0 0 17 17" fill="none" xmlns="http://www.w3.org/2000/svg">
<path fill-rule="evenodd" clip-rule="evenodd" d="M6.00421 9.37737C6.00421 9.16551 5.83245 8.99375 5.62059 8.99375L4.27775 8.99372C4.06589 8.99375 3.89407 9.16551 3.89407 9.3774V10.7202C3.89407 10.9321 4.06583 11.1038 4.27775 11.1038H5.62059C5.83245 11.1038 6.00421 10.9321 6.00421 10.7202V9.37737Z" fill="#B8B8B8"/>
<path fill-rule="evenodd" clip-rule="evenodd" d="M9.37 9.37737C9.37 9.16551 9.19824 8.99375 8.98637 8.99375L7.64354 8.99372C7.43167 8.99375 7.25991 9.16551 7.25991 9.3774V10.7202C7.25991 10.9321 7.43167 11.1038 7.64354 11.1038H8.98637C9.19824 11.1038 9.37 10.9321 9.37 10.7202V9.37737Z" fill="#B8B8B8"/>
<path fill-rule="evenodd" clip-rule="evenodd" d="M12.7346 9.37737C12.7346 9.16551 12.5628 8.99375 12.351 8.99375L11.0082 8.99372C10.7963 8.99375 10.6245 9.16551 10.6245 9.3774V10.7202C10.6245 10.9321 10.7963 11.1038 11.0082 11.1038H12.351C12.5628 11.1038 12.7346 10.9321 12.7346 10.7202V9.37737Z" fill="#B8B8B8"/>
<path fill-rule="evenodd" clip-rule="evenodd" d="M6.00421 12.7427C6.00421 12.5308 5.83245 12.3591 5.62059 12.3591L4.27775 12.3591C4.06589 12.3591 3.89407 12.5308 3.89407 12.7427V14.0855C3.89407 14.2974 4.06583 14.4692 4.27775 14.4692H5.62059C5.83245 14.4692 6.00421 14.2974 6.00421 14.0855V12.7427Z" fill="#B8B8B8"/>
<path fill-rule="evenodd" clip-rule="evenodd" d="M9.37 12.7427C9.37 12.5308 9.19824 12.3591 8.98637 12.3591L7.64354 12.3591C7.43167 12.3591 7.25991 12.5308 7.25991 12.7427V14.0855C7.25991 14.2974 7.43167 14.4692 7.64354 14.4692H8.98637C9.19824 14.4692 9.37 14.2974 9.37 14.0855V12.7427Z" fill="#B8B8B8"/>
<path fill-rule="evenodd" clip-rule="evenodd" d="M12.7346 12.7427C12.7346 12.5308 12.5628 12.3591 12.351 12.3591L11.0082 12.3591C10.7963 12.3591 10.6245 12.5308 10.6245 12.7427V14.0855C10.6245 14.2974 10.7963 14.4692 11.0082 14.4692H12.351C12.5628 14.4692 12.7346 14.2974 12.7346 14.0855V12.7427Z" fill="#B8B8B8"/>
<path fill-rule="evenodd" clip-rule="evenodd" d="M15.144 1.89337V3.9498C15.1438 4.39577 14.9662 4.82328 14.6504 5.13814C14.3346 5.453 13.9066 5.62934 13.4607 5.62831H12.397C11.4666 5.63096 10.7094 4.88024 10.7041 3.9498V1.8857H5.91795V3.94883C5.91268 4.87927 5.1555 5.63 4.22503 5.62735H3.16232C2.71641 5.62837 2.28835 5.452 1.97263 5.13715C1.65685 4.82228 1.47924 4.39475 1.479 3.94883V1.89337C0.65807 1.92314 0.00614691 2.59409 0 3.41555V15.4654C0 16.3089 0.680667 16.9942 1.52414 17H15.098C15.941 16.9937 16.6212 16.3084 16.6211 15.4654V3.41555C16.615 2.5948 15.9642 1.92413 15.144 1.89337ZM14.651 14.7153C14.6484 15.077 14.3547 15.3689 13.9931 15.3695H2.60219C2.23823 15.3695 1.94324 15.0745 1.94324 14.7105V8.49138C1.94324 8.12747 2.23823 7.83245 2.60219 7.83245H13.9931C14.3569 7.83245 14.652 8.12747 14.652 8.49138V14.7153H14.651Z" fill="#B8B8B8"/>
<path fill-rule="evenodd" clip-rule="evenodd" d="M3.15942 4.52528H4.21452C4.53235 4.52528 4.78999 4.26762 4.78999 3.94978V0.575497C4.78999 0.257658 4.53235 0 4.21452 0H3.15942C2.8416 0 2.58396 0.257658 2.58396 0.575497V3.94786C2.58343 4.10084 2.64384 4.2477 2.75185 4.35605C2.85981 4.46438 3.00651 4.52528 3.15942 4.52528Z" fill="#B8B8B8"/>
<path fill-rule="evenodd" clip-rule="evenodd" d="M12.3836 4.52528H13.4387C13.7566 4.52528 14.0143 4.26762 14.0143 3.94978L14.0142 0.575497C14.0143 0.257658 13.7566 0 13.4387 0H12.3836C12.0658 0 11.8082 0.257658 11.8082 0.575497V3.94786C11.8076 4.10084 11.868 4.2477 11.9761 4.35605C12.084 4.46438 12.2307 4.52528 12.3836 4.52528Z" fill="#B8B8B8"/>
</svg>
